<svg width="500" height="500" viewBox="0 0 500 500" fill="none" xmlns="http://www.w3.org/2000/svg">
<rect width="500" height="500" fill="black"/>
<path fill-rule="evenodd" clip-rule="evenodd" d="M235.903 292.745C242.033 303.557 257.611 303.557 263.741 292.745L269.643 282.335H230.002L235.903 292.745ZM222.969 269.929L208.903 245.118H290.742L276.676 269.929H222.969ZM201.869 232.713H297.775L311.841 207.902H187.803L201.869 232.713ZM180.77 195.496L166.704 170.685H332.94L318.874 195.496H180.77ZM159.671 158.279H339.973L356.597 128.957H143.047L159.671 158.279ZM136.014 116.551L130.538 106.891C124.491 96.2248 132.195 83 144.456 83H355.188C367.449 83 375.154 96.2248 369.107 106.891L363.63 116.551H136.014Z" fill="url(#paint0_linear)"/>
<path fill-rule="evenodd" clip-rule="evenodd" d="M230.204 120.322C218.118 118.345 150.012 109.832 144.691 109.68C142.411 109.604 139.978 109.452 139.37 109.3C138.762 109.148 136.71 109.3 134.81 109.68C122.42 111.808 121.584 112.568 122.116 121.766C122.344 125.414 122.876 128.303 123.332 128.455C123.788 128.607 124.168 129.367 124.168 130.203C124.168 130.963 124.548 131.647 124.928 131.647C125.384 131.647 125.688 132.179 125.688 132.787C125.688 133.395 125.992 133.928 126.296 133.928C126.676 133.928 127.361 135.144 127.969 136.588C128.577 138.032 129.261 139.248 129.641 139.248C129.945 139.248 130.249 139.78 130.249 140.389C130.249 140.997 130.629 141.529 131.009 141.529C131.465 141.529 131.769 142.061 131.769 142.669C131.769 143.277 132.149 143.809 132.529 143.809C132.985 143.809 133.289 144.341 133.289 144.949C133.289 145.557 133.517 146.089 133.898 146.089C134.202 146.089 135.114 147.382 135.95 148.902C136.786 150.498 138.078 152.322 138.762 153.006C139.522 153.69 140.13 154.451 140.13 154.603C140.13 155.667 147.732 162.812 150.392 164.18C154.117 166.156 162.326 168.893 164.454 168.893C166.886 168.893 166.202 169.881 162.174 172.161C160.121 173.301 157.993 175.05 157.537 175.886C156.473 177.862 157.081 187.668 158.297 188.884C158.753 189.34 159.133 190.48 159.133 191.468C159.133 192.456 159.513 193.216 159.893 193.216C160.349 193.216 160.654 194.205 160.654 195.497C160.654 196.713 160.958 197.777 161.338 197.777C161.718 197.777 162.25 199.525 162.554 201.578C162.858 203.706 163.39 205.378 163.77 205.378C164.15 205.378 164.454 206.214 164.454 207.278C164.454 208.343 164.758 209.179 165.138 209.179C165.518 209.179 166.05 210.167 166.354 211.459C166.658 212.675 167.19 213.739 167.571 213.739C167.951 213.739 168.255 214.119 168.255 214.5C168.255 215.868 174.336 221.189 177.68 222.709C185.965 226.661 206.792 227.497 228.836 224.761C249.359 222.253 267.677 219.744 273.53 218.604C285.92 216.096 294.281 211.231 295.726 205.53C296.562 202.034 293.369 188.428 289.949 181.511C288.276 178.166 286.224 174.594 285.312 173.605C283.564 171.705 279.155 169.349 275.963 168.589L273.758 168.057L275.963 166.384C280.827 162.66 281.131 159.999 277.711 152.322C272.086 140.008 264.485 129.671 258.86 126.782C255.668 125.186 245.178 122.754 230.204 120.322ZM356.687 138.564C352.81 136.36 342.701 134.384 321.113 131.723C297.626 128.683 294.585 128.759 290.329 132.331C287.44 134.688 289.645 143.429 296.714 157.871C299.982 164.636 302.491 167.449 306.823 169.273L309.712 170.489L307.811 172.769C305.227 175.81 305.303 178.926 307.963 190.632C310.7 202.262 312.6 205.834 317.617 208.343C321.189 210.243 321.949 210.319 333.199 210.243C346.729 210.243 364.668 207.811 370.597 205.226C372.649 204.39 375.157 202.566 376.222 201.274C378.122 199.069 378.198 198.613 377.818 192.836C377.134 181.967 373.257 172.769 368.392 170.337L365.96 169.121L367.632 167.449C369.989 165.092 369.609 160.836 366.264 152.626C362.996 144.493 360.335 140.617 356.687 138.564ZM190.45 143.505C188.474 139.78 188.93 138.716 192.806 137.88C200.864 136.284 228 139.096 233.092 142.061C235.449 143.505 239.249 148.446 240.009 151.106C240.389 152.322 240.161 152.854 239.173 153.082C237.425 153.462 202.46 151.79 200.94 151.182C200.332 150.954 198.887 150.574 197.747 150.346C195.087 149.738 192.426 147.23 190.45 143.505ZM227.163 181.587C215.99 182.119 212.341 183.791 212.341 188.58C212.341 189.872 212.645 190.936 213.025 190.936C213.405 190.936 213.937 192.076 214.166 193.52C214.47 194.965 215.762 197.397 217.13 198.917C219.41 201.502 220.17 201.806 224.655 202.262C230.204 202.87 253.691 201.274 256.732 200.057C258.328 199.449 258.708 198.841 258.708 196.713C258.708 193.976 257.72 190.784 256.428 189.188C256.319 189.058 256.143 188.835 255.92 188.553L255.917 188.549L255.915 188.547L255.915 188.547L255.914 188.546C255.355 187.839 254.504 186.764 253.691 185.843C252.551 184.323 250.651 183.107 248.979 182.651C245.786 181.891 233.852 181.283 227.163 181.587ZM326.054 156.731C322.862 155.591 320.429 149.054 322.786 148.142C325.446 147.002 340.192 148.37 343.233 149.966C344.601 150.726 346.273 153.462 347.261 156.655L347.793 158.479L337.912 158.023C332.439 157.719 327.118 157.187 326.054 156.731ZM336.468 179.534C334.795 180.066 333.807 180.979 333.503 182.195C332.819 184.855 335.404 192.38 337.228 193.368C338.824 194.205 353.874 193.672 356.383 192.76C358.663 191.848 356.003 181.967 353.114 180.37C350.91 179.23 339.356 178.698 336.468 179.534Z" fill="white"/>
<g filter="url(#filter0_d)">
<path fill-rule="evenodd" clip-rule="evenodd" d="M240.973 255.316C210.176 261.177 182.487 271.058 166.473 278.339C164.945 279.034 163.142 278.358 162.447 276.829C161.752 275.301 162.428 273.498 163.956 272.803C180.38 265.336 208.531 255.3 239.837 249.343C271.092 243.395 305.844 241.444 335.274 250.478C336.879 250.971 337.781 252.672 337.288 254.277C336.795 255.882 335.094 256.784 333.489 256.291C305.434 247.679 271.821 249.446 240.973 255.316Z" fill="#8720D2"/>
</g>
<g filter="url(#filter1_d)">
<mask id="path-4-outside-1" maskUnits="userSpaceOnUse" x="167.944" y="166.317" width="157" height="115" fill="black">
<rect fill="white" x="167.944" y="166.317" width="157" height="115"/>
<path d="M174.782 246.284C173.554 246.387 172.476 245.956 171.549 244.993C170.622 244.029 170.094 242.771 169.964 241.22C169.829 239.604 170.377 237.605 171.61 235.224C172.842 232.843 174.379 230.598 176.22 228.491C180.156 224.191 183.682 220.836 186.8 218.427L188.811 216.794C189.808 216.255 190.855 215.939 191.954 215.847C193.117 215.75 194.184 216.051 195.154 216.751C196.118 217.386 196.641 218.188 196.723 219.158C196.804 220.127 196.715 221.014 196.457 221.816C196.199 222.619 195.895 223.263 195.545 223.748C194.635 225.321 194.094 226.245 193.922 226.52C193.745 226.73 193.667 226.964 193.688 227.223C193.704 227.417 193.842 227.503 194.1 227.481C194.424 227.454 195.702 226.403 197.937 224.328C204.559 217.915 209.422 214.579 212.525 214.319C213.753 214.216 214.819 214.517 215.725 215.222C216.689 215.858 217.209 216.628 217.285 217.533C217.361 218.438 217.235 219.262 216.906 220.005C216.573 220.684 216.086 221.473 215.445 222.373C214.395 223.828 213.884 224.717 213.911 225.04C213.933 225.299 214.17 225.409 214.622 225.371C215.139 225.328 217.115 223.665 220.551 220.383C223.986 217.101 226.414 215.401 227.836 215.282C229.258 215.162 230.406 215.652 231.279 216.751C232.211 217.779 232.726 218.875 232.824 220.038C232.921 221.202 231.498 224.022 228.553 228.5C225.604 232.913 224.153 235.41 224.202 235.992C224.25 236.574 224.501 236.846 224.954 236.808C225.336 236.711 225.772 236.479 226.262 236.112C226.752 235.746 227.223 235.544 227.676 235.506C228.516 235.435 228.966 235.755 229.026 236.466C229.204 238.599 228.166 240.574 225.909 242.39C223.648 244.142 221.289 245.121 218.833 245.327C213.662 245.76 210.887 243.714 210.508 239.19C210.432 238.285 210.596 237.132 210.999 235.731C211.467 234.325 211.968 233.307 212.501 232.676C212.662 232.272 212.737 232.006 212.726 231.876C212.71 231.683 212.573 231.596 212.314 231.618C212.12 231.634 211.87 231.753 211.563 231.974C211.251 232.13 209.958 233.41 207.686 235.814C201.468 242.388 197.098 245.781 194.577 245.992C193.22 246.106 192.145 245.708 191.353 244.798C190.555 243.823 190.11 242.786 190.018 241.688C189.851 239.684 190.636 237.405 192.375 234.851C192.541 234.512 192.614 234.213 192.592 233.954C192.565 233.631 192.422 233.48 192.164 233.502C191.905 233.523 191.625 233.677 191.324 233.963C183.011 241.949 177.497 246.056 174.782 246.284Z"/>
<path d="M214.254 272.169C213.994 269.067 215.175 264.509 217.795 258.497C220.351 252.49 223.54 246.267 227.361 239.828C235.597 226.25 242.804 215.167 248.984 206.578L253.094 200.863C253.988 199.877 254.92 199.343 255.889 199.262C256.859 199.181 257.6 199.477 258.112 200.15C258.624 200.823 258.904 201.45 258.953 202.032C258.996 202.549 258.708 203.777 258.09 205.717C257.536 207.651 256.845 209.889 256.016 212.432C255.183 214.91 254.712 216.284 254.604 216.554C254.556 216.753 254.543 216.982 254.564 217.24C254.586 217.499 254.791 217.612 255.178 217.579C255.631 217.542 256.605 216.744 258.102 215.187C262.722 210.503 266.292 208.056 268.813 207.845C273.402 207.461 275.892 209.595 276.281 214.249C276.159 216.668 274.964 219.892 272.698 223.922C270.433 227.952 267.461 231.716 263.783 235.214C260.165 238.641 256.708 240.493 253.411 240.77C251.989 240.889 250.731 240.636 249.638 240.012C248.544 239.387 247.709 238.741 247.132 238.074C246.555 237.406 246.17 237.08 245.976 237.097C245.847 237.107 245.667 237.285 245.435 237.63C245.268 237.969 239.865 248.837 229.226 270.232C226.422 275.609 223.468 278.427 220.366 278.687C218.75 278.823 217.363 278.19 216.204 276.79C215.05 275.455 214.401 273.915 214.254 272.169ZM264.711 214.828C263.095 214.963 259.881 217.771 255.068 223.252C250.319 228.727 247.999 232.11 248.108 233.403C248.118 233.532 248.253 233.586 248.512 233.564C250.968 233.359 254.46 230.755 258.988 225.755C263.51 220.689 265.693 217.219 265.536 215.345C265.503 214.957 265.228 214.785 264.711 214.828Z"/>
<path d="M318.438 230.146C316.322 232.081 313.716 233.992 310.619 235.878C307.588 237.76 304.973 238.792 302.775 238.977C300.642 239.155 298.875 238.652 297.474 237.468C296.073 236.284 295.294 234.754 295.137 232.88C294.877 229.777 296.758 225.421 300.779 219.812C301.134 219.392 301.304 219.085 301.288 218.891C301.266 218.632 301.19 218.508 301.061 218.519C300.932 218.53 300.461 218.732 299.647 219.126C298.893 219.449 296.82 221.12 293.428 224.138C290.031 227.091 286.746 230.231 283.575 233.556C280.398 236.816 278.067 238.508 276.58 238.633C275.158 238.752 274.04 238.227 273.226 237.059C272.477 235.885 272.037 234.522 271.907 232.971C271.507 228.188 274.614 220.605 281.229 210.222C287.909 199.834 295.002 190.485 302.507 182.175C310.007 173.801 314.888 169.519 317.15 169.33C318.249 169.238 319.324 169.636 320.374 170.524C321.484 171.342 322.107 172.559 322.243 174.175C322.373 175.727 320.726 179.379 317.303 185.134C313.879 190.888 310.028 196.971 305.749 203.383C300.366 211.385 297.701 215.709 297.755 216.355C297.777 216.614 297.917 216.732 298.176 216.711C298.434 216.689 299.49 216.08 301.342 214.883C303.189 213.622 305.206 212.444 307.392 211.349C309.573 210.19 311.079 209.511 311.908 209.311C312.797 209.041 313.823 208.858 314.986 208.76C316.214 208.657 317.432 208.816 318.639 209.235C319.91 209.65 320.589 210.374 320.676 211.408C320.757 212.378 318.666 215.775 314.402 221.6C310.198 227.354 308.128 230.62 308.193 231.395C308.253 232.106 308.606 232.435 309.252 232.38C310.61 232.267 313.141 230.623 316.845 227.448C318.245 226.289 319.069 225.635 319.317 225.484C319.564 225.333 319.85 225.244 320.173 225.217C321.078 225.141 321.568 225.555 321.644 226.46C321.687 226.977 320.619 228.206 318.438 230.146Z"/>
</mask>
<path d="M174.782 246.284C173.554 246.387 172.476 245.956 171.549 244.993C170.622 244.029 170.094 242.771 169.964 241.22C169.829 239.604 170.377 237.605 171.61 235.224C172.842 232.843 174.379 230.598 176.22 228.491C180.156 224.191 183.682 220.836 186.8 218.427L188.811 216.794C189.808 216.255 190.855 215.939 191.954 215.847C193.117 215.75 194.184 216.051 195.154 216.751C196.118 217.386 196.641 218.188 196.723 219.158C196.804 220.127 196.715 221.014 196.457 221.816C196.199 222.619 195.895 223.263 195.545 223.748C194.635 225.321 194.094 226.245 193.922 226.52C193.745 226.73 193.667 226.964 193.688 227.223C193.704 227.417 193.842 227.503 194.1 227.481C194.424 227.454 195.702 226.403 197.937 224.328C204.559 217.915 209.422 214.579 212.525 214.319C213.753 214.216 214.819 214.517 215.725 215.222C216.689 215.858 217.209 216.628 217.285 217.533C217.361 218.438 217.235 219.262 216.906 220.005C216.573 220.684 216.086 221.473 215.445 222.373C214.395 223.828 213.884 224.717 213.911 225.04C213.933 225.299 214.17 225.409 214.622 225.371C215.139 225.328 217.115 223.665 220.551 220.383C223.986 217.101 226.414 215.401 227.836 215.282C229.258 215.162 230.406 215.652 231.279 216.751C232.211 217.779 232.726 218.875 232.824 220.038C232.921 221.202 231.498 224.022 228.553 228.5C225.604 232.913 224.153 235.41 224.202 235.992C224.25 236.574 224.501 236.846 224.954 236.808C225.336 236.711 225.772 236.479 226.262 236.112C226.752 235.746 227.223 235.544 227.676 235.506C228.516 235.435 228.966 235.755 229.026 236.466C229.204 238.599 228.166 240.574 225.909 242.39C223.648 244.142 221.289 245.121 218.833 245.327C213.662 245.76 210.887 243.714 210.508 239.19C210.432 238.285 210.596 237.132 210.999 235.731C211.467 234.325 211.968 233.307 212.501 232.676C212.662 232.272 212.737 232.006 212.726 231.876C212.71 231.683 212.573 231.596 212.314 231.618C212.12 231.634 211.87 231.753 211.563 231.974C211.251 232.13 209.958 233.41 207.686 235.814C201.468 242.388 197.098 245.781 194.577 245.992C193.22 246.106 192.145 245.708 191.353 244.798C190.555 243.823 190.11 242.786 190.018 241.688C189.851 239.684 190.636 237.405 192.375 234.851C192.541 234.512 192.614 234.213 192.592 233.954C192.565 233.631 192.422 233.48 192.164 233.502C191.905 233.523 191.625 233.677 191.324 233.963C183.011 241.949 177.497 246.056 174.782 246.284Z" fill="url(#paint1_linear)"/>
<path d="M214.254 272.169C213.994 269.067 215.175 264.509 217.795 258.497C220.351 252.49 223.54 246.267 227.361 239.828C235.597 226.25 242.804 215.167 248.984 206.578L253.094 200.863C253.988 199.877 254.92 199.343 255.889 199.262C256.859 199.181 257.6 199.477 258.112 200.15C258.624 200.823 258.904 201.45 258.953 202.032C258.996 202.549 258.708 203.777 258.09 205.717C257.536 207.651 256.845 209.889 256.016 212.432C255.183 214.91 254.712 216.284 254.604 216.554C254.556 216.753 254.543 216.982 254.564 217.24C254.586 217.499 254.791 217.612 255.178 217.579C255.631 217.542 256.605 216.744 258.102 215.187C262.722 210.503 266.292 208.056 268.813 207.845C273.402 207.461 275.892 209.595 276.281 214.249C276.159 216.668 274.964 219.892 272.698 223.922C270.433 227.952 267.461 231.716 263.783 235.214C260.165 238.641 256.708 240.493 253.411 240.77C251.989 240.889 250.731 240.636 249.638 240.012C248.544 239.387 247.709 238.741 247.132 238.074C246.555 237.406 246.17 237.08 245.976 237.097C245.847 237.107 245.667 237.285 245.435 237.63C245.268 237.969 239.865 248.837 229.226 270.232C226.422 275.609 223.468 278.427 220.366 278.687C218.75 278.823 217.363 278.19 216.204 276.79C215.05 275.455 214.401 273.915 214.254 272.169ZM264.711 214.828C263.095 214.963 259.881 217.771 255.068 223.252C250.319 228.727 247.999 232.11 248.108 233.403C248.118 233.532 248.253 233.586 248.512 233.564C250.968 233.359 254.46 230.755 258.988 225.755C263.51 220.689 265.693 217.219 265.536 215.345C265.503 214.957 265.228 214.785 264.711 214.828Z" fill="url(#paint2_linear)"/>
<path d="M318.438 230.146C316.322 232.081 313.716 233.992 310.619 235.878C307.588 237.76 304.973 238.792 302.775 238.977C300.642 239.155 298.875 238.652 297.474 237.468C296.073 236.284 295.294 234.754 295.137 232.88C294.877 229.777 296.758 225.421 300.779 219.812C301.134 219.392 301.304 219.085 301.288 218.891C301.266 218.632 301.19 218.508 301.061 218.519C300.932 218.53 300.461 218.732 299.647 219.126C298.893 219.449 296.82 221.12 293.428 224.138C290.031 227.091 286.746 230.231 283.575 233.556C280.398 236.816 278.067 238.508 276.58 238.633C275.158 238.752 274.04 238.227 273.226 237.059C272.477 235.885 272.037 234.522 271.907 232.971C271.507 228.188 274.614 220.605 281.229 210.222C287.909 199.834 295.002 190.485 302.507 182.175C310.007 173.801 314.888 169.519 317.15 169.33C318.249 169.238 319.324 169.636 320.374 170.524C321.484 171.342 322.107 172.559 322.243 174.175C322.373 175.727 320.726 179.379 317.303 185.134C313.879 190.888 310.028 196.971 305.749 203.383C300.366 211.385 297.701 215.709 297.755 216.355C297.777 216.614 297.917 216.732 298.176 216.711C298.434 216.689 299.49 216.08 301.342 214.883C303.189 213.622 305.206 212.444 307.392 211.349C309.573 210.19 311.079 209.511 311.908 209.311C312.797 209.041 313.823 208.858 314.986 208.76C316.214 208.657 317.432 208.816 318.639 209.235C319.91 209.65 320.589 210.374 320.676 211.408C320.757 212.378 318.666 215.775 314.402 221.6C310.198 227.354 308.128 230.62 308.193 231.395C308.253 232.106 308.606 232.435 309.252 232.38C310.61 232.267 313.141 230.623 316.845 227.448C318.245 226.289 319.069 225.635 319.317 225.484C319.564 225.333 319.85 225.244 320.173 225.217C321.078 225.141 321.568 225.555 321.644 226.46C321.687 226.977 320.619 228.206 318.438 230.146Z" fill="url(#paint3_linear)"/>
<path d="M174.782 246.284C173.554 246.387 172.476 245.956 171.549 244.993C170.622 244.029 170.094 242.771 169.964 241.22C169.829 239.604 170.377 237.605 171.61 235.224C172.842 232.843 174.379 230.598 176.22 228.491C180.156 224.191 183.682 220.836 186.8 218.427L188.811 216.794C189.808 216.255 190.855 215.939 191.954 215.847C193.117 215.75 194.184 216.051 195.154 216.751C196.118 217.386 196.641 218.188 196.723 219.158C196.804 220.127 196.715 221.014 196.457 221.816C196.199 222.619 195.895 223.263 195.545 223.748C194.635 225.321 194.094 226.245 193.922 226.52C193.745 226.73 193.667 226.964 193.688 227.223C193.704 227.417 193.842 227.503 194.1 227.481C194.424 227.454 195.702 226.403 197.937 224.328C204.559 217.915 209.422 214.579 212.525 214.319C213.753 214.216 214.819 214.517 215.725 215.222C216.689 215.858 217.209 216.628 217.285 217.533C217.361 218.438 217.235 219.262 216.906 220.005C216.573 220.684 216.086 221.473 215.445 222.373C214.395 223.828 213.884 224.717 213.911 225.04C213.933 225.299 214.17 225.409 214.622 225.371C215.139 225.328 217.115 223.665 220.551 220.383C223.986 217.101 226.414 215.401 227.836 215.282C229.258 215.162 230.406 215.652 231.279 216.751C232.211 217.779 232.726 218.875 232.824 220.038C232.921 221.202 231.498 224.022 228.553 228.5C225.604 232.913 224.153 235.41 224.202 235.992C224.25 236.574 224.501 236.846 224.954 236.808C225.336 236.711 225.772 236.479 226.262 236.112C226.752 235.746 227.223 235.544 227.676 235.506C228.516 235.435 228.966 235.755 229.026 236.466C229.204 238.599 228.166 240.574 225.909 242.39C223.648 244.142 221.289 245.121 218.833 245.327C213.662 245.76 210.887 243.714 210.508 239.19C210.432 238.285 210.596 237.132 210.999 235.731C211.467 234.325 211.968 233.307 212.501 232.676C212.662 232.272 212.737 232.006 212.726 231.876C212.71 231.683 212.573 231.596 212.314 231.618C212.12 231.634 211.87 231.753 211.563 231.974C211.251 232.13 209.958 233.41 207.686 235.814C201.468 242.388 197.098 245.781 194.577 245.992C193.22 246.106 192.145 245.708 191.353 244.798C190.555 243.823 190.11 242.786 190.018 241.688C189.851 239.684 190.636 237.405 192.375 234.851C192.541 234.512 192.614 234.213 192.592 233.954C192.565 233.631 192.422 233.48 192.164 233.502C191.905 233.523 191.625 233.677 191.324 233.963C183.011 241.949 177.497 246.056 174.782 246.284Z" stroke="url(#paint4_linear)" stroke-width="4" mask="url(#path-4-outside-1)"/>
<path d="M214.254 272.169C213.994 269.067 215.175 264.509 217.795 258.497C220.351 252.49 223.54 246.267 227.361 239.828C235.597 226.25 242.804 215.167 248.984 206.578L253.094 200.863C253.988 199.877 254.92 199.343 255.889 199.262C256.859 199.181 257.6 199.477 258.112 200.15C258.624 200.823 258.904 201.45 258.953 202.032C258.996 202.549 258.708 203.777 258.09 205.717C257.536 207.651 256.845 209.889 256.016 212.432C255.183 214.91 254.712 216.284 254.604 216.554C254.556 216.753 254.543 216.982 254.564 217.24C254.586 217.499 254.791 217.612 255.178 217.579C255.631 217.542 256.605 216.744 258.102 215.187C262.722 210.503 266.292 208.056 268.813 207.845C273.402 207.461 275.892 209.595 276.281 214.249C276.159 216.668 274.964 219.892 272.698 223.922C270.433 227.952 267.461 231.716 263.783 235.214C260.165 238.641 256.708 240.493 253.411 240.77C251.989 240.889 250.731 240.636 249.638 240.012C248.544 239.387 247.709 238.741 247.132 238.074C246.555 237.406 246.17 237.08 245.976 237.097C245.847 237.107 245.667 237.285 245.435 237.63C245.268 237.969 239.865 248.837 229.226 270.232C226.422 275.609 223.468 278.427 220.366 278.687C218.75 278.823 217.363 278.19 216.204 276.79C215.05 275.455 214.401 273.915 214.254 272.169ZM264.711 214.828C263.095 214.963 259.881 217.771 255.068 223.252C250.319 228.727 247.999 232.11 248.108 233.403C248.118 233.532 248.253 233.586 248.512 233.564C250.968 233.359 254.46 230.755 258.988 225.755C263.51 220.689 265.693 217.219 265.536 215.345C265.503 214.957 265.228 214.785 264.711 214.828Z" stroke="url(#paint5_linear)" stroke-width="4" mask="url(#path-4-outside-1)"/>
<path d="M318.438 230.146C316.322 232.081 313.716 233.992 310.619 235.878C307.588 237.76 304.973 238.792 302.775 238.977C300.642 239.155 298.875 238.652 297.474 237.468C296.073 236.284 295.294 234.754 295.137 232.88C294.877 229.777 296.758 225.421 300.779 219.812C301.134 219.392 301.304 219.085 301.288 218.891C301.266 218.632 301.19 218.508 301.061 218.519C300.932 218.53 300.461 218.732 299.647 219.126C298.893 219.449 296.82 221.12 293.428 224.138C290.031 227.091 286.746 230.231 283.575 233.556C280.398 236.816 278.067 238.508 276.58 238.633C275.158 238.752 274.04 238.227 273.226 237.059C272.477 235.885 272.037 234.522 271.907 232.971C271.507 228.188 274.614 220.605 281.229 210.222C287.909 199.834 295.002 190.485 302.507 182.175C310.007 173.801 314.888 169.519 317.15 169.33C318.249 169.238 319.324 169.636 320.374 170.524C321.484 171.342 322.107 172.559 322.243 174.175C322.373 175.727 320.726 179.379 317.303 185.134C313.879 190.888 310.028 196.971 305.749 203.383C300.366 211.385 297.701 215.709 297.755 216.355C297.777 216.614 297.917 216.732 298.176 216.711C298.434 216.689 299.49 216.08 301.342 214.883C303.189 213.622 305.206 212.444 307.392 211.349C309.573 210.19 311.079 209.511 311.908 209.311C312.797 209.041 313.823 208.858 314.986 208.76C316.214 208.657 317.432 208.816 318.639 209.235C319.91 209.65 320.589 210.374 320.676 211.408C320.757 212.378 318.666 215.775 314.402 221.6C310.198 227.354 308.128 230.62 308.193 231.395C308.253 232.106 308.606 232.435 309.252 232.38C310.61 232.267 313.141 230.623 316.845 227.448C318.245 226.289 319.069 225.635 319.317 225.484C319.564 225.333 319.85 225.244 320.173 225.217C321.078 225.141 321.568 225.555 321.644 226.46C321.687 226.977 320.619 228.206 318.438 230.146Z" stroke="url(#paint6_linear)" stroke-width="4" mask="url(#path-4-outside-1)"/>
</g>
<style>
    .small { font: normal 16px sans-serif; }
    .large { font: bold 24px sans-serif; }
    .white {fill: white}
</style>
<text x="50%" y="70%" dominant-baseline="middle" text-anchor="middle" class="large white">88mph&#160;Deposit</text>
<text x="50%" y="75%" dominant-baseline="middle" text-anchor="middle" class="small white">Asset-Protocol</text>
<text x="50%" y="85%" dominant-baseline="middle" text-anchor="middle" class="small white">00xe772F91224b66c09D1bC40A6d742DC5D784d59Df</text>
<text x="50%" y="90%" dominant-baseline="middle" text-anchor="middle" class="small white">Token&#160;ID&#160;42</text>
<defs>
<filter id="filter0_d" x="158.174" y="244.288" width="183.249" height="42.3241" filterUnits="userSpaceOnUse" color-interpolation-filters="sRGB">
<feFlood flood-opacity="0" result="BackgroundImageFix"/>
<feColorMatrix in="SourceAlpha" type="matrix" values="0 0 0 0 0 0 0 0 0 0 0 0 0 0 0 0 0 0 127 0" result="hardAlpha"/>
<feOffset dy="4"/>
<feGaussianBlur stdDeviation="2"/>
<feColorMatrix type="matrix" values="0 0 0 0 0.898039 0 0 0 0 0.129412 0 0 0 0 0.615686 0 0 0 0.5 0"/>
<feBlend mode="normal" in2="BackgroundImageFix" result="effect1_dropShadow"/>
<feBlend mode="normal" in="SourceGraphic" in2="effect1_dropShadow" result="shape"/>
</filter>
<filter id="filter1_d" x="155.944" y="159.316" width="180.306" height="137.389" filterUnits="userSpaceOnUse" color-interpolation-filters="sRGB">
<feFlood flood-opacity="0" result="BackgroundImageFix"/>
<feColorMatrix in="SourceAlpha" type="matrix" values="0 0 0 0 0 0 0 0 0 0 0 0 0 0 0 0 0 0 127 0" result="hardAlpha"/>
<feOffset dy="4"/>
<feGaussianBlur stdDeviation="6"/>
<feColorMatrix type="matrix" values="0 0 0 0 0.898039 0 0 0 0 0.129412 0 0 0 0 0.615686 0 0 0 0.5 0"/>
<feBlend mode="normal" in2="BackgroundImageFix" result="effect1_dropShadow"/>
<feBlend mode="normal" in="SourceGraphic" in2="effect1_dropShadow" result="shape"/>
</filter>
<linearGradient id="paint0_linear" x1="249.822" y1="300.854" x2="249.822" y2="83.7865" gradientUnits="userSpaceOnUse">
<stop stop-color="#FFE600"/>
<stop offset="0.307292" stop-color="#FAAD14"/>
<stop offset="0.671875" stop-color="#F7169C"/>
<stop offset="1" stop-color="#3435F5"/>
</linearGradient>
<linearGradient id="paint1_linear" x1="252.249" y1="189.416" x2="279.994" y2="284.81" gradientUnits="userSpaceOnUse">
<stop offset="0.223958" stop-color="#FF009D"/>
<stop offset="0.880208" stop-color="#3435F5"/>
</linearGradient>
<linearGradient id="paint2_linear" x1="252.249" y1="189.416" x2="279.994" y2="284.81" gradientUnits="userSpaceOnUse">
<stop offset="0.223958" stop-color="#FF009D"/>
<stop offset="0.880208" stop-color="#3435F5"/>
</linearGradient>
<linearGradient id="paint3_linear" x1="252.249" y1="189.416" x2="279.994" y2="284.81" gradientUnits="userSpaceOnUse">
<stop offset="0.223958" stop-color="#FF009D"/>
<stop offset="0.880208" stop-color="#3435F5"/>
</linearGradient>
<linearGradient id="paint4_linear" x1="239.561" y1="200.536" x2="241.909" y2="272.268" gradientUnits="userSpaceOnUse">
<stop stop-color="white"/>
<stop offset="1" stop-color="#F7169C"/>
</linearGradient>
<linearGradient id="paint5_linear" x1="239.561" y1="200.536" x2="241.909" y2="272.268" gradientUnits="userSpaceOnUse">
<stop stop-color="white"/>
<stop offset="1" stop-color="#F7169C"/>
</linearGradient>
<linearGradient id="paint6_linear" x1="239.561" y1="200.536" x2="241.909" y2="272.268" gradientUnits="userSpaceOnUse">
<stop stop-color="white"/>
<stop offset="1" stop-color="#F7169C"/>
</linearGradient>
</defs>
</svg>
