<svg xmlns="http://www.w3.org/2000/svg" xmlns:xlink="http://www.w3.org/1999/xlink" viewBox="0 0 147.5 170.01"><defs><style>.cls-1{fill:none;}.cls-2{fill:#fff;}.cls-3{fill:#2a5ada;}.cls-4{isolation:isolate;}.cls-5{clip-path:url(#clip-path);}.cls-6{clip-path:url(#clip-path-2);}.cls-7{clip-path:url(#clip-path-3);}</style><clipPath id="clip-path"><polygon id="SVGID" class="cls-1" points="90.27 143.44 90.13 93.68 127.69 72 127.83 121.75 90.27 143.44"/></clipPath><clipPath id="clip-path-2"><polygon id="SVGID-2" data-name="SVGID" class="cls-1" points="31.64 35.76 64.84 16.46 119.42 47.98 86.23 67.27 31.64 35.76"/></clipPath><clipPath id="clip-path-3"><polygon id="SVGID-3" data-name="SVGID" class="cls-1" points="9.52 115.79 9.66 65.72 63.68 96.91 63.54 146.98 9.52 115.79"/></clipPath></defs><g id="Layer_2" data-name="Layer 2"><g id="Layer_1-2" data-name="Layer 1"><polygon class="cls-2" points="1.02 43.01 73.75 1.02 146.48 43.01 146.48 126.99 73.75 168.98 1.02 126.99 1.02 43.01"/><path class="cls-3" d="M73.75,170a1.06,1.06,0,0,1-.51-.14l-72.73-42A1,1,0,0,1,0,127V43a1,1,0,0,1,.51-.88L73.24.14a1,1,0,0,1,1,0l72.73,42a1,1,0,0,1,.51.88v84a1,1,0,0,1-.51.89l-72.73,42A1,1,0,0,1,73.75,170ZM2,126.4l71.71,41.4,71.71-41.4V43.6L73.75,2.2,2,43.6Z"/><polyline class="cls-2" points="1.02 43.01 73.75 85 146.48 43.01"/><path class="cls-3" d="M73.75,86a1,1,0,0,1-.51-.13L.51,43.9l1-1.77L73.75,83.82,146,42.13l1,1.77-72.73,42A1,1,0,0,1,73.75,86Z"/><g class="cls-4"><g class="cls-5"><path class="cls-3" d="M109.05,122l-10.84-.89-.08-14.31,10.76-13.43,10.85.88.08,14.31L109.05,122m-.21-39.16-4,4.94L94.12,101.24l-4,4.94,0,5.26.07,14.33,0,5.25,4,.33,10.85.88,4,.33,4-4.94,10.77-13.44,4-4.93,0-5.27-.08-14.31,0-5.27-4-.31-10.85-.88-4-.33"/></g></g><g class="cls-4"><g class="cls-6"><path d="M71,20a13.47,13.47,0,0,0-12.57.13c-4,2.31-3.47,5.37-.15,7.28a12.27,12.27,0,0,0,9.64.87l-1.31-1.46a8.14,8.14,0,0,1-6.35-.56c-2.1-1.21-2.55-3.23.31-4.89a8.85,8.85,0,0,1,8.49-.24c2.07,1.2,2,2.55.9,3.62l2.62.76C74.19,24,74.17,21.85,71,20"/><polyline points="88.45 30.4 86.35 29.19 81.31 32.12 75.53 28.78 80.57 25.85 78.48 24.64 66.26 31.75 68.35 32.95 73.57 29.92 79.35 33.25 74.13 36.29 76.23 37.5 88.45 30.4"/><path d="M87,37.92l6.86-1.83-3.12,4L87,37.92m10.35-2.41L94.9,34.12l-17,4.34,2.2,1.27,4.22-1.12,5.21,3-1.91,2.46,2.27,1.31,7.43-9.87"/><polyline points="105.88 40.46 103.75 39.23 91.53 46.34 93.66 47.56 105.88 40.46"/><polyline points="119.16 48.13 117.07 46.92 108.4 51.96 111.48 43.69 108.83 42.16 96.61 49.27 98.68 50.46 107.95 45.08 104.76 53.97 106.94 55.23 119.16 48.13"/><polyline points="46.71 30.28 44.62 29.07 32.39 36.18 40.11 40.64 42.08 39.5 36.45 36.24 46.71 30.28"/><polyline points="56.38 35.86 54.26 34.64 42.03 41.75 44.14 42.97 56.38 35.86"/><polyline points="69.67 43.53 67.58 42.33 58.9 47.38 61.99 39.1 59.34 37.57 47.1 44.68 49.18 45.88 58.45 40.49 55.26 49.39 57.44 50.65 69.67 43.53"/><polyline points="82.74 51.08 80 49.5 68.83 49.85 74.71 46.44 72.62 45.24 60.38 52.35 62.47 53.55 66 51.5 69.4 51.41 67.94 56.71 70.56 58.22 72.35 51.35 82.74 51.08"/></g></g><rect class="cls-3" x="72.73" y="85" width="2.04" height="83.98"/><g class="cls-4"><g class="cls-7"><polyline points="14.46 68.97 9.65 69.65 9.64 70.8 14.44 77.02 15.06 76.23 11.09 71.05 15.08 70.49 14.46 68.97"/><polyline points="25.87 75.56 25.24 76.35 29.23 81.52 25.23 82.09 25.85 83.61 30.66 82.93 30.66 81.78 25.87 75.56"/><polyline points="22.07 72.88 17.24 78.38 18.23 79.72 23.05 74.22 22.07 72.88"/><polyline points="14.34 110 9.53 110.67 9.53 111.83 14.32 118.05 14.95 117.26 10.98 112.09 14.96 111.53 14.34 110"/><polyline points="25.76 116.59 25.13 117.4 29.11 122.56 25.11 123.12 25.73 124.64 30.55 123.96 30.55 122.81 25.76 116.59"/><polyline points="21.95 113.91 17.13 119.41 18.11 120.75 22.95 115.25 21.95 113.91"/><polyline points="46.17 100.6 9.62 79.5 9.61 81.41 46.17 102.52 46.17 100.6"/><polyline points="63.61 121.13 9.59 89.94 9.59 91.88 63.61 123.07 63.61 121.13"/><polyline points="37.38 111.05 9.58 95 9.57 96.91 37.37 112.96 37.38 111.05"/><polyline points="46.12 120.91 9.56 99.82 9.56 101.74 46.11 122.84 46.12 120.91"/><polyline points="60.76 114.44 9.6 84.92 9.6 86.84 60.75 116.37 60.76 114.44"/></g></g></g></g></svg>