<svg width="28" height="28" viewBox="0 0 28 28" fill="none" xmlns="http://www.w3.org/2000/svg">
<circle cx="14" cy="14" r="14" fill="#161522"/>
<path fill-rule="evenodd" clip-rule="evenodd" d="M15.311 21.6297H12.6117C13.3666 22.3236 14.5561 22.3236 15.311 21.6297ZM15.9397 20.7157H11.983L10.9467 18.8878H16.976L15.9397 20.7157ZM10.4285 17.9738H17.4942L18.5305 16.1459H9.39221L10.4285 17.9738ZM8.87407 15.2319L7.83777 13.404H20.0849L19.0486 15.2319H8.87407ZM7.31962 12.4901H20.6031L21.8278 10.3298H6.0949L7.31962 12.4901ZM5.66249 9.41585C5.36396 8.20728 6.26851 6.944 7.6083 6.944H20.3144C21.6542 6.944 22.5587 8.20728 22.2602 9.41585H5.66249Z" fill="url(#paint0_linear)"/>
<defs>
<linearGradient id="paint0_linear" x1="13.9614" y1="23.1777" x2="13.9614" y2="7.00261" gradientUnits="userSpaceOnUse">
<stop stop-color="#FFE600"/>
<stop offset="0.307292" stop-color="#FAAD14"/>
<stop offset="0.671875" stop-color="#F7169C"/>
<stop offset="1" stop-color="#3435F5"/>
</linearGradient>
</defs>
</svg>
