<svg width="28" height="28" viewBox="0 0 28 28" fill="none" xmlns="http://www.w3.org/2000/svg">
<circle cx="14" cy="14" r="14" fill="#161522"/>
<path fill-rule="evenodd" clip-rule="evenodd" d="M15.311 21.6297H12.6118C13.3667 22.3236 14.5561 22.3236 15.311 21.6297ZM15.9398 20.7157H11.983L10.9467 18.8878H16.9761L15.9398 20.7157ZM10.4286 17.9738H17.4942L18.5305 16.1459H9.39225L10.4286 17.9738ZM8.87411 15.232L7.83781 13.404H20.085L19.0487 15.232H8.87411ZM7.31966 12.4901H20.6031L21.8278 10.3298H6.09494L7.31966 12.4901ZM5.66253 9.41585C5.364 8.20728 6.26855 6.94401 7.60834 6.94401H20.3144C21.6542 6.94401 22.5588 8.20728 22.2603 9.41585H5.66253Z" fill="url(#paint0_linear)"/>
<defs>
<linearGradient id="paint0_linear" x1="13.9614" y1="22.1501" x2="13.9614" y2="6.9989" gradientUnits="userSpaceOnUse">
<stop stop-color="#FF5EA7"/>
<stop offset="1" stop-color="#3435F5"/>
</linearGradient>
</defs>
</svg>
