<svg width="24" height="24" viewBox="0 0 24 24" fill="none" xmlns="http://www.w3.org/2000/svg">
<g clip-path="url(#clip0)">
<circle cx="12" cy="12" r="12" fill="#161522"/>
<path fill-rule="evenodd" clip-rule="evenodd" d="M13.2141 18.5397H10.7197C11.3089 19.428 12.6249 19.428 13.2141 18.5397ZM13.6626 17.7563H10.2711L9.38288 16.1895H14.5509L13.6626 17.7563ZM8.93875 15.4061H14.995L15.8833 13.8393H8.0505L8.93875 15.4061ZM7.60637 13.0559L6.71811 11.4892H17.2157L16.3274 13.0559H7.60637ZM6.27398 10.7058H17.6598L18.7095 8.85412H5.22423L6.27398 10.7058ZM4.78683 8.07072C4.34026 7.09461 5.05009 5.95197 6.1536 5.95197H17.7802C18.8837 5.95197 19.5935 7.09461 19.1469 8.07072H4.78683Z" fill="url(#paint0_linear)"/>
<path d="M11.4576 16.26H10.9576L11.4576 12.76H9.70758C9.41758 12.76 9.42258 12.6 9.51758 12.43C9.61258 12.26 9.54258 12.39 9.55258 12.37C10.1976 11.23 11.1676 9.53001 12.4576 7.26001H12.9576L12.4576 10.76H14.2076C14.4526 10.76 14.4876 10.925 14.4426 11.015L14.4076 11.09C12.4376 14.535 11.4576 16.26 11.4576 16.26Z" fill="#161522"/>
</g>
<defs>
<linearGradient id="paint0_linear" x1="11.9669" y1="15.4061" x2="11.9669" y2="5.9861" gradientUnits="userSpaceOnUse">
<stop stop-color="#FFE600"/>
<stop offset="0.307292" stop-color="#FAAD14"/>
<stop offset="0.671875" stop-color="#F7169C"/>
<stop offset="1" stop-color="#3435F5"/>
</linearGradient>
<clipPath id="clip0">
<rect width="24" height="24" fill="white"/>
</clipPath>
</defs>
</svg>
