<svg width="24" height="24" viewBox="0 0 24 24" fill="none" xmlns="http://www.w3.org/2000/svg">
<g clip-path="url(#clip0)">
<circle cx="12" cy="12" r="12" fill="#161522"/>
<path fill-rule="evenodd" clip-rule="evenodd" d="M13.2141 18.5397H10.7197C11.3089 19.428 12.6249 19.428 13.2141 18.5397ZM13.6626 17.7563H10.2711L9.38288 16.1895H14.5509L13.6626 17.7563ZM8.93875 15.4061H14.995L15.8833 13.8393H8.0505L8.93875 15.4061ZM7.60637 13.0559L6.71811 11.4892H17.2157L16.3274 13.0559H7.60637ZM6.27398 10.7058H17.6598L18.7095 8.85412H5.22423L6.27398 10.7058ZM4.78683 8.07072C4.34026 7.09461 5.05009 5.95197 6.1536 5.95197H17.7802C18.8837 5.95197 19.5935 7.09461 19.1469 8.07072H4.78683Z" fill="url(#paint0_linear)"/>
<path d="M11.8463 15.084H11.4023L11.8463 11.976H10.2923C10.0348 11.976 10.0393 11.8339 10.1236 11.683C10.208 11.532 10.1458 11.6475 10.1547 11.6297C10.7275 10.6174 11.5888 9.10777 12.7343 7.09201H13.1783L12.7343 10.2H14.2883C14.5059 10.2 14.537 10.3465 14.497 10.4265L14.4659 10.4931C12.7166 13.5522 11.8463 15.084 11.8463 15.084Z" fill="#161522" stroke="url(#paint1_linear)" stroke-width="0.1" stroke-linecap="round" stroke-linejoin="round"/>
</g>
<defs>
<linearGradient id="paint0_linear" x1="11.9669" y1="15.4061" x2="11.9669" y2="5.9861" gradientUnits="userSpaceOnUse">
<stop stop-color="#FFE600"/>
<stop offset="0.307292" stop-color="#FAAD14"/>
<stop offset="0.671875" stop-color="#F7169C"/>
<stop offset="1" stop-color="#3435F5"/>
</linearGradient>
<linearGradient id="paint1_linear" x1="12.292" y1="7.09201" x2="12.292" y2="15.084" gradientUnits="userSpaceOnUse">
<stop stop-color="#3F34F1"/>
<stop offset="0.348958" stop-color="#E01AA7"/>
<stop offset="0.713542" stop-color="#F96457"/>
<stop offset="1" stop-color="#FAA020"/>
</linearGradient>
<clipPath id="clip0">
<rect width="24" height="24" fill="white"/>
</clipPath>
</defs>
</svg>
