<svg width="419" height="292" viewBox="0 0 419 292" fill="none" xmlns="http://www.w3.org/2000/svg">
<path fill-rule="evenodd" clip-rule="evenodd" d="M195.243 283.687C201.373 294.499 216.951 294.499 223.081 283.687L235.238 262.244H183.086L195.243 283.687ZM173.834 245.923L155.328 213.282H262.996L244.49 245.923H173.834ZM146.076 196.961H272.248L290.754 164.32H127.57L146.076 196.961ZM118.318 147.999L99.8123 115.358H318.512L300.006 147.999H118.318ZM90.5596 99.0369H327.764L349.634 60.4607H68.6896L90.5596 99.0369ZM59.437 44.1401L47.9572 23.8909C41.9102 13.2248 49.6149 0 61.876 0H356.448C368.709 0 376.414 13.2248 370.367 23.891L358.887 44.1401H59.437Z" fill="url(#paint0_linear)"/>
<path fill-rule="evenodd" clip-rule="evenodd" d="M418.852 14H0.852295L209.852 14L418.852 14ZM245.852 91.2C238.452 75 228.452 61.4 221.052 57.6C216.852 55.5 203.052 52.3 183.352 49.1C167.452 46.5 77.8523 35.3 70.8523 35.1C67.8523 35 64.6523 34.8 63.8523 34.6C63.0523 34.4 60.3523 34.6 57.8523 35.1C41.5523 37.9 40.4523 38.9 41.1523 51C41.4523 55.8 42.1523 59.6 42.7523 59.8C43.3523 60 43.8523 61 43.8523 62.1C43.8523 63.1 44.3523 64 44.8523 64C45.4523 64 45.8523 64.7 45.8523 65.5C45.8523 66.3 46.2523 67 46.6523 67C47.1523 67 48.0523 68.6 48.8523 70.5C49.6523 72.4 50.5523 74 51.0523 74C51.4523 74 51.8523 74.7 51.8523 75.5C51.8523 76.3 52.3523 77 52.8523 77C53.4523 77 53.8523 77.7 53.8523 78.5C53.8523 79.3 54.3523 80 54.8523 80C55.4523 80 55.8523 80.7 55.8523 81.5C55.8523 82.3 56.1523 83 56.6523 83C57.0523 83 58.2523 84.7 59.3523 86.7C60.4523 88.8 62.1523 91.2 63.0523 92.1C64.0523 93 64.8523 94 64.8523 94.2C64.8523 95.6 74.8523 105 78.3523 106.8C83.2523 109.4 94.0523 113 96.8523 113C100.052 113 99.1523 114.3 93.8523 117.3C91.1523 118.8 88.3523 121.1 87.7523 122.2C86.3523 124.8 87.1523 137.7 88.7523 139.3C89.3523 139.9 89.8523 141.4 89.8523 142.7C89.8523 144 90.3523 145 90.8523 145C91.4523 145 91.8523 146.3 91.8523 148C91.8523 149.6 92.2523 151 92.7523 151C93.2523 151 93.9523 153.3 94.3523 156C94.7523 158.8 95.4523 161 95.9523 161C96.4523 161 96.8523 162.1 96.8523 163.5C96.8523 164.9 97.2523 166 97.7523 166C98.2523 166 98.9523 167.3 99.3523 169C99.7523 170.6 100.452 172 100.952 172C101.452 172 101.852 172.5 101.852 173C101.852 174.8 109.852 181.8 114.252 183.8C125.152 189 152.552 190.1 181.552 186.5C208.552 183.2 232.652 179.9 240.352 178.4C256.652 175.1 267.652 168.7 269.552 161.2C270.652 156.6 266.452 138.7 261.952 129.6C259.752 125.2 257.052 120.5 255.852 119.2C253.552 116.7 247.752 113.6 243.552 112.6L240.652 111.9L243.552 109.7C249.952 104.8 250.352 101.3 245.852 91.2ZM362.352 91.6C358.052 80.9 354.552 75.8 349.752 73.1C344.652 70.2 331.352 67.6 302.952 64.1C272.052 60.1 268.052 60.2 262.452 64.9C258.652 68 261.552 79.5 270.852 98.5C275.152 107.4 278.452 111.1 284.152 113.5L287.952 115.1L285.452 118.1C282.052 122.1 282.152 126.2 285.652 141.6C289.252 156.9 291.752 161.6 298.352 164.9C303.052 167.4 304.052 167.5 318.852 167.4C336.652 167.4 360.252 164.2 368.052 160.8C370.752 159.7 374.052 157.3 375.452 155.6C377.952 152.7 378.052 152.1 377.552 144.5C376.652 130.2 371.552 118.1 365.152 114.9L361.952 113.3L364.152 111.1C367.252 108 366.752 102.4 362.352 91.6ZM131.052 79.6C128.452 74.7 129.052 73.3 134.152 72.2C144.752 70.1 180.452 73.8 187.152 77.7C190.252 79.6 195.252 86.1 196.252 89.6C196.752 91.2 196.452 91.9 195.152 92.2C192.852 92.7 146.852 90.5 144.852 89.7C144.052 89.4 142.152 88.9 140.652 88.6C137.152 87.8 133.652 84.5 131.052 79.6ZM217.178 138.857C216.441 137.927 215.321 136.512 214.252 135.3C212.752 133.3 210.252 131.7 208.052 131.1C203.852 130.1 188.152 129.3 179.352 129.7C164.652 130.4 159.852 132.6 159.852 138.9C159.852 140.6 160.252 142 160.752 142C161.252 142 161.952 143.5 162.252 145.4C162.652 147.3 164.352 150.5 166.152 152.5C169.152 155.9 170.152 156.3 176.052 156.9C183.352 157.7 214.252 155.6 218.252 154C220.352 153.2 220.852 152.4 220.852 149.6C220.852 146 219.552 141.8 217.852 139.7C217.709 139.528 217.475 139.232 217.179 138.858L217.178 138.857ZM309.452 97C305.252 95.5 302.052 86.9 305.152 85.7C308.652 84.2 328.052 86 332.052 88.1C333.852 89.1 336.052 92.7 337.352 96.9L338.052 99.3L325.052 98.7C317.852 98.3 310.852 97.6 309.452 97ZM349.352 144.4C352.352 143.2 348.852 130.2 345.052 128.1C342.152 126.6 326.952 125.9 323.152 127C320.952 127.7 319.652 128.9 319.252 130.5C318.352 134 321.752 143.9 324.152 145.2C326.252 146.3 346.052 145.6 349.352 144.4Z" fill="white"/>
<g filter="url(#filter0_d)">
<path fill-rule="evenodd" clip-rule="evenodd" d="M197.521 226.698C157.004 234.408 120.576 247.407 99.5089 256.986C97.4979 257.901 95.1264 257.012 94.212 255.001C93.2976 252.99 94.1866 250.618 96.1977 249.704C117.804 239.88 154.84 226.677 196.025 218.839C237.145 211.015 282.864 208.448 321.582 220.333C323.693 220.982 324.88 223.219 324.232 225.331C323.583 227.443 321.346 228.629 319.234 227.981C282.324 216.65 238.103 218.976 197.521 226.698Z" fill="#8720D2"/>
</g>
<g filter="url(#filter1_d)">
<mask id="path-4-outside-1" maskUnits="userSpaceOnUse" x="102.075" y="110.558" width="205" height="149" fill="black">
<rect fill="white" x="102.075" y="110.558" width="205" height="149"/>
<path d="M110.44 214.815C108.824 214.951 107.407 214.384 106.187 213.116C104.968 211.849 104.272 210.194 104.101 208.153C103.923 206.027 104.645 203.398 106.266 200.265C107.888 197.132 109.91 194.18 112.332 191.408C117.51 185.75 122.149 181.337 126.251 178.167L128.897 176.019C130.208 175.309 131.586 174.894 133.031 174.773C134.562 174.645 135.965 175.041 137.241 175.962C138.51 176.797 139.198 177.853 139.305 179.129C139.412 180.404 139.295 181.57 138.956 182.626C138.616 183.682 138.216 184.529 137.756 185.167C136.559 187.237 135.847 188.452 135.621 188.814C135.387 189.09 135.284 189.399 135.313 189.739C135.334 189.994 135.515 190.107 135.855 190.079C136.28 190.043 137.963 188.661 140.902 185.931C149.615 177.494 156.012 173.104 160.094 172.762C161.71 172.627 163.113 173.023 164.304 173.951C165.573 174.787 166.257 175.8 166.357 176.99C166.457 178.181 166.291 179.265 165.859 180.243C165.42 181.136 164.779 182.175 163.936 183.359C162.555 185.273 161.882 186.442 161.918 186.867C161.947 187.208 162.258 187.353 162.854 187.303C163.534 187.246 166.134 185.058 170.653 180.741C175.172 176.423 178.367 174.186 180.238 174.029C182.109 173.872 183.619 174.516 184.767 175.961C185.994 177.314 186.671 178.756 186.799 180.287C186.928 181.818 185.055 185.528 181.181 191.419C177.301 197.224 175.392 200.51 175.456 201.275C175.52 202.041 175.85 202.398 176.445 202.348C176.948 202.221 177.522 201.916 178.167 201.434C178.812 200.951 179.432 200.685 180.027 200.635C181.132 200.543 181.724 200.964 181.803 201.9C182.038 204.706 180.671 207.304 177.703 209.693C174.728 211.998 171.624 213.285 168.393 213.556C161.59 214.126 157.939 211.435 157.441 205.482C157.341 204.292 157.556 202.775 158.087 200.932C158.703 199.083 159.361 197.743 160.062 196.913C160.275 196.382 160.374 196.031 160.36 195.861C160.338 195.606 160.157 195.493 159.817 195.521C159.562 195.542 159.233 195.698 158.829 195.989C158.418 196.195 156.718 197.879 153.729 201.041C145.548 209.69 139.799 214.154 136.483 214.431C134.697 214.581 133.283 214.057 132.241 212.86C131.191 211.578 130.606 210.214 130.485 208.768C130.264 206.132 131.297 203.134 133.585 199.774C133.804 199.328 133.9 198.934 133.871 198.594C133.836 198.169 133.648 197.971 133.308 197.999C132.967 198.028 132.599 198.23 132.202 198.606C121.266 209.113 114.011 214.516 110.44 214.815Z"/>
<path d="M162.37 248.87C162.028 244.789 163.58 238.793 167.028 230.882C170.391 222.979 174.586 214.793 179.613 206.322C190.448 188.459 199.93 173.877 208.06 162.578L213.467 155.06C214.643 153.763 215.869 153.061 217.144 152.954C218.42 152.847 219.394 153.236 220.068 154.122C220.742 155.007 221.11 155.833 221.175 156.598C221.232 157.278 220.853 158.894 220.039 161.446C219.311 163.99 218.401 166.935 217.311 170.28C216.215 173.541 215.595 175.348 215.454 175.702C215.39 175.965 215.372 176.266 215.401 176.606C215.429 176.946 215.699 177.095 216.209 177.052C216.804 177.002 218.086 175.953 220.056 173.904C226.133 167.743 230.83 164.523 234.146 164.245C240.184 163.74 243.459 166.548 243.972 172.67C243.811 175.852 242.239 180.094 239.258 185.397C236.277 190.699 232.368 195.65 227.53 200.252C222.77 204.761 218.221 207.197 213.884 207.561C212.014 207.717 210.359 207.385 208.92 206.564C207.481 205.742 206.382 204.892 205.623 204.014C204.865 203.136 204.358 202.707 204.103 202.728C203.933 202.743 203.695 202.977 203.391 203.43C203.171 203.877 196.063 218.174 182.066 246.321C178.377 253.395 174.491 257.103 170.41 257.445C168.284 257.623 166.459 256.791 164.934 254.949C163.417 253.193 162.562 251.166 162.37 248.87ZM228.751 173.432C226.625 173.61 222.396 177.304 216.064 184.514C209.817 191.717 206.764 196.169 206.907 197.869C206.921 198.039 207.098 198.11 207.438 198.082C210.67 197.811 215.264 194.386 221.221 187.807C227.17 181.143 230.042 176.578 229.835 174.112C229.792 173.602 229.431 173.375 228.751 173.432Z"/>
<path d="M299.433 193.585C296.649 196.13 293.221 198.644 289.147 201.126C285.158 203.601 281.718 204.96 278.827 205.202C276.021 205.437 273.696 204.775 271.853 203.217C270.01 201.659 268.985 199.647 268.778 197.181C268.436 193.099 270.91 187.369 276.201 179.989C276.668 179.436 276.891 179.032 276.87 178.777C276.841 178.437 276.742 178.274 276.572 178.288C276.402 178.302 275.782 178.568 274.712 179.086C273.72 179.512 270.993 181.71 266.53 185.68C262.06 189.566 257.739 193.696 253.567 198.07C249.388 202.359 246.321 204.586 244.365 204.75C242.494 204.906 241.024 204.216 239.953 202.679C238.967 201.134 238.389 199.342 238.218 197.301C237.69 191.008 241.778 181.032 250.482 167.372C259.27 153.706 268.601 141.406 278.474 130.474C288.341 119.457 294.762 113.824 297.739 113.575C299.184 113.454 300.598 113.977 301.981 115.146C303.441 116.223 304.26 117.824 304.438 119.95C304.609 121.99 302.443 126.796 297.939 134.367C293.436 141.937 288.369 149.94 282.739 158.376C275.657 168.902 272.152 174.591 272.223 175.441C272.252 175.781 272.436 175.937 272.776 175.909C273.116 175.88 274.505 175.079 276.942 173.504C279.372 171.845 282.025 170.296 284.902 168.856C287.771 167.331 289.751 166.437 290.842 166.174C292.012 165.819 293.361 165.578 294.892 165.45C296.508 165.314 298.109 165.523 299.697 166.075C301.37 166.619 302.263 167.572 302.377 168.933C302.484 170.208 299.733 174.678 294.124 182.341C288.593 189.912 285.87 194.207 285.955 195.228C286.034 196.163 286.498 196.595 287.348 196.524C289.134 196.374 292.464 194.211 297.337 190.035C299.179 188.511 300.263 187.649 300.589 187.451C300.915 187.252 301.29 187.135 301.716 187.099C302.906 187 303.551 187.545 303.651 188.736C303.708 189.416 302.302 191.032 299.433 193.585Z"/>
</mask>
<path d="M110.44 214.815C108.824 214.951 107.407 214.384 106.187 213.116C104.968 211.849 104.272 210.194 104.101 208.153C103.923 206.027 104.645 203.398 106.266 200.265C107.888 197.132 109.91 194.18 112.332 191.408C117.51 185.75 122.149 181.337 126.251 178.167L128.897 176.019C130.208 175.309 131.586 174.894 133.031 174.773C134.562 174.645 135.965 175.041 137.241 175.962C138.51 176.797 139.198 177.853 139.305 179.129C139.412 180.404 139.295 181.57 138.956 182.626C138.616 183.682 138.216 184.529 137.756 185.167C136.559 187.237 135.847 188.452 135.621 188.814C135.387 189.09 135.284 189.399 135.313 189.739C135.334 189.994 135.515 190.107 135.855 190.079C136.28 190.043 137.963 188.661 140.902 185.931C149.615 177.494 156.012 173.104 160.094 172.762C161.71 172.627 163.113 173.023 164.304 173.951C165.573 174.787 166.257 175.8 166.357 176.99C166.457 178.181 166.291 179.265 165.859 180.243C165.42 181.136 164.779 182.175 163.936 183.359C162.555 185.273 161.882 186.442 161.918 186.867C161.947 187.208 162.258 187.353 162.854 187.303C163.534 187.246 166.134 185.058 170.653 180.741C175.172 176.423 178.367 174.186 180.238 174.029C182.109 173.872 183.619 174.516 184.767 175.961C185.994 177.314 186.671 178.756 186.799 180.287C186.928 181.818 185.055 185.528 181.181 191.419C177.301 197.224 175.392 200.51 175.456 201.275C175.52 202.041 175.85 202.398 176.445 202.348C176.948 202.221 177.522 201.916 178.167 201.434C178.812 200.951 179.432 200.685 180.027 200.635C181.132 200.543 181.724 200.964 181.803 201.9C182.038 204.706 180.671 207.304 177.703 209.693C174.728 211.998 171.624 213.285 168.393 213.556C161.59 214.126 157.939 211.435 157.441 205.482C157.341 204.292 157.556 202.775 158.087 200.932C158.703 199.083 159.361 197.743 160.062 196.913C160.275 196.382 160.374 196.031 160.36 195.861C160.338 195.606 160.157 195.493 159.817 195.521C159.562 195.542 159.233 195.698 158.829 195.989C158.418 196.195 156.718 197.879 153.729 201.041C145.548 209.69 139.799 214.154 136.483 214.431C134.697 214.581 133.283 214.057 132.241 212.86C131.191 211.578 130.606 210.214 130.485 208.768C130.264 206.132 131.297 203.134 133.585 199.774C133.804 199.328 133.9 198.934 133.871 198.594C133.836 198.169 133.648 197.971 133.308 197.999C132.967 198.028 132.599 198.23 132.202 198.606C121.266 209.113 114.011 214.516 110.44 214.815Z" fill="url(#paint1_linear)"/>
<path d="M162.37 248.87C162.028 244.789 163.58 238.793 167.028 230.882C170.391 222.979 174.586 214.793 179.613 206.322C190.448 188.459 199.93 173.877 208.06 162.578L213.467 155.06C214.643 153.763 215.869 153.061 217.144 152.954C218.42 152.847 219.394 153.236 220.068 154.122C220.742 155.007 221.11 155.833 221.175 156.598C221.232 157.278 220.853 158.894 220.039 161.446C219.311 163.99 218.401 166.935 217.311 170.28C216.215 173.541 215.595 175.348 215.454 175.702C215.39 175.965 215.372 176.266 215.401 176.606C215.429 176.946 215.699 177.095 216.209 177.052C216.804 177.002 218.086 175.953 220.056 173.904C226.133 167.743 230.83 164.523 234.146 164.245C240.184 163.74 243.459 166.548 243.972 172.67C243.811 175.852 242.239 180.094 239.258 185.397C236.277 190.699 232.368 195.65 227.53 200.252C222.77 204.761 218.221 207.197 213.884 207.561C212.014 207.717 210.359 207.385 208.92 206.564C207.481 205.742 206.382 204.892 205.623 204.014C204.865 203.136 204.358 202.707 204.103 202.728C203.933 202.743 203.695 202.977 203.391 203.43C203.171 203.877 196.063 218.174 182.066 246.321C178.377 253.395 174.491 257.103 170.41 257.445C168.284 257.623 166.459 256.791 164.934 254.949C163.417 253.193 162.562 251.166 162.37 248.87ZM228.751 173.432C226.625 173.61 222.396 177.304 216.064 184.514C209.817 191.717 206.764 196.169 206.907 197.869C206.921 198.039 207.098 198.11 207.438 198.082C210.67 197.811 215.264 194.386 221.221 187.807C227.17 181.143 230.042 176.578 229.835 174.112C229.792 173.602 229.431 173.375 228.751 173.432Z" fill="url(#paint2_linear)"/>
<path d="M299.433 193.585C296.649 196.13 293.221 198.644 289.147 201.126C285.158 203.601 281.718 204.96 278.827 205.202C276.021 205.437 273.696 204.775 271.853 203.217C270.01 201.659 268.985 199.647 268.778 197.181C268.436 193.099 270.91 187.369 276.201 179.989C276.668 179.436 276.891 179.032 276.87 178.777C276.841 178.437 276.742 178.274 276.572 178.288C276.402 178.302 275.782 178.568 274.712 179.086C273.72 179.512 270.993 181.71 266.53 185.68C262.06 189.566 257.739 193.696 253.567 198.07C249.388 202.359 246.321 204.586 244.365 204.75C242.494 204.906 241.024 204.216 239.953 202.679C238.967 201.134 238.389 199.342 238.218 197.301C237.69 191.008 241.778 181.032 250.482 167.372C259.27 153.706 268.601 141.406 278.474 130.474C288.341 119.457 294.762 113.824 297.739 113.575C299.184 113.454 300.598 113.977 301.981 115.146C303.441 116.223 304.26 117.824 304.438 119.95C304.609 121.99 302.443 126.796 297.939 134.367C293.436 141.937 288.369 149.94 282.739 158.376C275.657 168.902 272.152 174.591 272.223 175.441C272.252 175.781 272.436 175.937 272.776 175.909C273.116 175.88 274.505 175.079 276.942 173.504C279.372 171.845 282.025 170.296 284.902 168.856C287.771 167.331 289.751 166.437 290.842 166.174C292.012 165.819 293.361 165.578 294.892 165.45C296.508 165.314 298.109 165.523 299.697 166.075C301.37 166.619 302.263 167.572 302.377 168.933C302.484 170.208 299.733 174.678 294.124 182.341C288.593 189.912 285.87 194.207 285.955 195.228C286.034 196.163 286.498 196.595 287.348 196.524C289.134 196.374 292.464 194.211 297.337 190.035C299.179 188.511 300.263 187.649 300.589 187.451C300.915 187.252 301.29 187.135 301.716 187.099C302.906 187 303.551 187.545 303.651 188.736C303.708 189.416 302.302 191.032 299.433 193.585Z" fill="url(#paint3_linear)"/>
<path d="M110.44 214.815C108.824 214.951 107.407 214.384 106.187 213.116C104.968 211.849 104.272 210.194 104.101 208.153C103.923 206.027 104.645 203.398 106.266 200.265C107.888 197.132 109.91 194.18 112.332 191.408C117.51 185.75 122.149 181.337 126.251 178.167L128.897 176.019C130.208 175.309 131.586 174.894 133.031 174.773C134.562 174.645 135.965 175.041 137.241 175.962C138.51 176.797 139.198 177.853 139.305 179.129C139.412 180.404 139.295 181.57 138.956 182.626C138.616 183.682 138.216 184.529 137.756 185.167C136.559 187.237 135.847 188.452 135.621 188.814C135.387 189.09 135.284 189.399 135.313 189.739C135.334 189.994 135.515 190.107 135.855 190.079C136.28 190.043 137.963 188.661 140.902 185.931C149.615 177.494 156.012 173.104 160.094 172.762C161.71 172.627 163.113 173.023 164.304 173.951C165.573 174.787 166.257 175.8 166.357 176.99C166.457 178.181 166.291 179.265 165.859 180.243C165.42 181.136 164.779 182.175 163.936 183.359C162.555 185.273 161.882 186.442 161.918 186.867C161.947 187.208 162.258 187.353 162.854 187.303C163.534 187.246 166.134 185.058 170.653 180.741C175.172 176.423 178.367 174.186 180.238 174.029C182.109 173.872 183.619 174.516 184.767 175.961C185.994 177.314 186.671 178.756 186.799 180.287C186.928 181.818 185.055 185.528 181.181 191.419C177.301 197.224 175.392 200.51 175.456 201.275C175.52 202.041 175.85 202.398 176.445 202.348C176.948 202.221 177.522 201.916 178.167 201.434C178.812 200.951 179.432 200.685 180.027 200.635C181.132 200.543 181.724 200.964 181.803 201.9C182.038 204.706 180.671 207.304 177.703 209.693C174.728 211.998 171.624 213.285 168.393 213.556C161.59 214.126 157.939 211.435 157.441 205.482C157.341 204.292 157.556 202.775 158.087 200.932C158.703 199.083 159.361 197.743 160.062 196.913C160.275 196.382 160.374 196.031 160.36 195.861C160.338 195.606 160.157 195.493 159.817 195.521C159.562 195.542 159.233 195.698 158.829 195.989C158.418 196.195 156.718 197.879 153.729 201.041C145.548 209.69 139.799 214.154 136.483 214.431C134.697 214.581 133.283 214.057 132.241 212.86C131.191 211.578 130.606 210.214 130.485 208.768C130.264 206.132 131.297 203.134 133.585 199.774C133.804 199.328 133.9 198.934 133.871 198.594C133.836 198.169 133.648 197.971 133.308 197.999C132.967 198.028 132.599 198.23 132.202 198.606C121.266 209.113 114.011 214.516 110.44 214.815Z" stroke="url(#paint4_linear)" stroke-width="4" mask="url(#path-4-outside-1)"/>
<path d="M162.37 248.87C162.028 244.789 163.58 238.793 167.028 230.882C170.391 222.979 174.586 214.793 179.613 206.322C190.448 188.459 199.93 173.877 208.06 162.578L213.467 155.06C214.643 153.763 215.869 153.061 217.144 152.954C218.42 152.847 219.394 153.236 220.068 154.122C220.742 155.007 221.11 155.833 221.175 156.598C221.232 157.278 220.853 158.894 220.039 161.446C219.311 163.99 218.401 166.935 217.311 170.28C216.215 173.541 215.595 175.348 215.454 175.702C215.39 175.965 215.372 176.266 215.401 176.606C215.429 176.946 215.699 177.095 216.209 177.052C216.804 177.002 218.086 175.953 220.056 173.904C226.133 167.743 230.83 164.523 234.146 164.245C240.184 163.74 243.459 166.548 243.972 172.67C243.811 175.852 242.239 180.094 239.258 185.397C236.277 190.699 232.368 195.65 227.53 200.252C222.77 204.761 218.221 207.197 213.884 207.561C212.014 207.717 210.359 207.385 208.92 206.564C207.481 205.742 206.382 204.892 205.623 204.014C204.865 203.136 204.358 202.707 204.103 202.728C203.933 202.743 203.695 202.977 203.391 203.43C203.171 203.877 196.063 218.174 182.066 246.321C178.377 253.395 174.491 257.103 170.41 257.445C168.284 257.623 166.459 256.791 164.934 254.949C163.417 253.193 162.562 251.166 162.37 248.87ZM228.751 173.432C226.625 173.61 222.396 177.304 216.064 184.514C209.817 191.717 206.764 196.169 206.907 197.869C206.921 198.039 207.098 198.11 207.438 198.082C210.67 197.811 215.264 194.386 221.221 187.807C227.17 181.143 230.042 176.578 229.835 174.112C229.792 173.602 229.431 173.375 228.751 173.432Z" stroke="url(#paint5_linear)" stroke-width="4" mask="url(#path-4-outside-1)"/>
<path d="M299.433 193.585C296.649 196.13 293.221 198.644 289.147 201.126C285.158 203.601 281.718 204.96 278.827 205.202C276.021 205.437 273.696 204.775 271.853 203.217C270.01 201.659 268.985 199.647 268.778 197.181C268.436 193.099 270.91 187.369 276.201 179.989C276.668 179.436 276.891 179.032 276.87 178.777C276.841 178.437 276.742 178.274 276.572 178.288C276.402 178.302 275.782 178.568 274.712 179.086C273.72 179.512 270.993 181.71 266.53 185.68C262.06 189.566 257.739 193.696 253.567 198.07C249.388 202.359 246.321 204.586 244.365 204.75C242.494 204.906 241.024 204.216 239.953 202.679C238.967 201.134 238.389 199.342 238.218 197.301C237.69 191.008 241.778 181.032 250.482 167.372C259.27 153.706 268.601 141.406 278.474 130.474C288.341 119.457 294.762 113.824 297.739 113.575C299.184 113.454 300.598 113.977 301.981 115.146C303.441 116.223 304.26 117.824 304.438 119.95C304.609 121.99 302.443 126.796 297.939 134.367C293.436 141.937 288.369 149.94 282.739 158.376C275.657 168.902 272.152 174.591 272.223 175.441C272.252 175.781 272.436 175.937 272.776 175.909C273.116 175.88 274.505 175.079 276.942 173.504C279.372 171.845 282.025 170.296 284.902 168.856C287.771 167.331 289.751 166.437 290.842 166.174C292.012 165.819 293.361 165.578 294.892 165.45C296.508 165.314 298.109 165.523 299.697 166.075C301.37 166.619 302.263 167.572 302.377 168.933C302.484 170.208 299.733 174.678 294.124 182.341C288.593 189.912 285.87 194.207 285.955 195.228C286.034 196.163 286.498 196.595 287.348 196.524C289.134 196.374 292.464 194.211 297.337 190.035C299.179 188.511 300.263 187.649 300.589 187.451C300.915 187.252 301.29 187.135 301.716 187.099C302.906 187 303.551 187.545 303.651 188.736C303.708 189.416 302.302 191.032 299.433 193.585Z" stroke="url(#paint6_linear)" stroke-width="4" mask="url(#path-4-outside-1)"/>
</g>
<defs>
<filter id="filter0_d" x="89.8523" y="212.189" width="238.557" height="53.1565" filterUnits="userSpaceOnUse" color-interpolation-filters="sRGB">
<feFlood flood-opacity="0" result="BackgroundImageFix"/>
<feColorMatrix in="SourceAlpha" type="matrix" values="0 0 0 0 0 0 0 0 0 0 0 0 0 0 0 0 0 0 127 0"/>
<feOffset dy="4"/>
<feGaussianBlur stdDeviation="2"/>
<feColorMatrix type="matrix" values="0 0 0 0 0.898039 0 0 0 0 0.129412 0 0 0 0 0.615686 0 0 0 0.5 0"/>
<feBlend mode="normal" in2="BackgroundImageFix" result="effect1_dropShadow"/>
<feBlend mode="normal" in="SourceGraphic" in2="effect1_dropShadow" result="shape"/>
</filter>
<filter id="filter1_d" x="90.075" y="103.557" width="228.372" height="171.911" filterUnits="userSpaceOnUse" color-interpolation-filters="sRGB">
<feFlood flood-opacity="0" result="BackgroundImageFix"/>
<feColorMatrix in="SourceAlpha" type="matrix" values="0 0 0 0 0 0 0 0 0 0 0 0 0 0 0 0 0 0 127 0"/>
<feOffset dy="4"/>
<feGaussianBlur stdDeviation="6"/>
<feColorMatrix type="matrix" values="0 0 0 0 0.898039 0 0 0 0 0.129412 0 0 0 0 0.615686 0 0 0 0.5 0"/>
<feBlend mode="normal" in2="BackgroundImageFix" result="effect1_dropShadow"/>
<feBlend mode="normal" in="SourceGraphic" in2="effect1_dropShadow" result="shape"/>
</filter>
<linearGradient id="paint0_linear" x1="209.162" y1="291.796" x2="209.162" y2="1.0534" gradientUnits="userSpaceOnUse">
<stop stop-color="#FFE600"/>
<stop offset="0.307292" stop-color="#FAAD14"/>
<stop offset="0.671875" stop-color="#F7169C"/>
<stop offset="1" stop-color="#3435F5"/>
</linearGradient>
<linearGradient id="paint1_linear" x1="212.356" y1="140" x2="248.856" y2="265.5" gradientUnits="userSpaceOnUse">
<stop offset="0.223958" stop-color="#FF009D"/>
<stop offset="0.880208" stop-color="#3435F5"/>
</linearGradient>
<linearGradient id="paint2_linear" x1="212.356" y1="140" x2="248.856" y2="265.5" gradientUnits="userSpaceOnUse">
<stop offset="0.223958" stop-color="#FF009D"/>
<stop offset="0.880208" stop-color="#3435F5"/>
</linearGradient>
<linearGradient id="paint3_linear" x1="212.356" y1="140" x2="248.856" y2="265.5" gradientUnits="userSpaceOnUse">
<stop offset="0.223958" stop-color="#FF009D"/>
<stop offset="0.880208" stop-color="#3435F5"/>
</linearGradient>
<linearGradient id="paint4_linear" x1="195.663" y1="154.629" x2="198.752" y2="249" gradientUnits="userSpaceOnUse">
<stop stop-color="white"/>
<stop offset="1" stop-color="#F7169C"/>
</linearGradient>
<linearGradient id="paint5_linear" x1="195.663" y1="154.629" x2="198.752" y2="249" gradientUnits="userSpaceOnUse">
<stop stop-color="white"/>
<stop offset="1" stop-color="#F7169C"/>
</linearGradient>
<linearGradient id="paint6_linear" x1="195.663" y1="154.629" x2="198.752" y2="249" gradientUnits="userSpaceOnUse">
<stop stop-color="white"/>
<stop offset="1" stop-color="#F7169C"/>
</linearGradient>
</defs>
</svg>
