<svg width="230" height="230" viewBox="0 0 230 230" fill="none" xmlns="http://www.w3.org/2000/svg">
<path d="M128.525 66.5065H101.475L90.6572 39.6461L128.525 66.5065Z" fill="#F6851B" stroke="#F6851B"/>
<path d="M90.6572 39.6461H139.343L128.525 66.5065L90.6572 39.6461Z" fill="#F6851B" stroke="#F6851B"/>
<path d="M101.475 66.5065L32.8008 14.8241L90.6571 39.6461L101.475 66.5065Z" fill="#E4761B" stroke="#E4761B"/>
<path d="M197.199 14.8241L128.525 66.5065L139.343 39.6461L197.199 14.8241Z" fill="#E2761B" stroke="#E2761B"/>
<path d="M60.9546 87.5705L30.0897 79.9135L28.3501 72.6497L60.9546 87.5705Z" fill="#763D16" stroke="#763D16"/>
<path d="M169.045 87.5705L201.65 72.6497L199.91 79.9135L169.045 87.5705Z" fill="#763D16" stroke="#763D16"/>
<path d="M35.6873 101.155L60.9546 87.5706L74.2677 90.2989L35.6873 101.155Z" fill="#763D16" stroke="#763D16"/>
<path d="M194.313 101.155L155.732 90.2989L169.045 87.5706L194.313 101.155Z" fill="#763D16" stroke="#763D16"/>
<path d="M31.2437 88.6358L60.9546 87.5706L35.6872 101.155L31.2437 88.6358Z" fill="#763D16" stroke="#763D16"/>
<path d="M31.2436 88.6357L30.0896 79.9135L60.9546 87.5705L31.2436 88.6357Z" fill="#763D16" stroke="#763D16"/>
<path d="M198.756 88.6358L194.313 101.155L169.045 87.5706L198.756 88.6358Z" fill="#763D16" stroke="#763D16"/>
<path d="M198.756 88.6357L169.045 87.5705L199.91 79.9135L198.756 88.6357Z" fill="#763D16" stroke="#763D16"/>
<path d="M62.1325 48.8086L60.9546 87.5705L28.3501 72.6497L62.1325 48.8086Z" fill="#763D16" stroke="#763D16"/>
<path d="M74.2676 90.2988L60.9546 87.5705L62.1325 48.8086L74.2676 90.2988Z" fill="#763D16" stroke="#763D16"/>
<path d="M201.65 72.6497L169.046 87.5705L167.868 48.8086L201.65 72.6497Z" fill="#763D16" stroke="#763D16"/>
<path d="M167.868 48.8086L169.045 87.5705L155.732 90.2988L167.868 48.8086Z" fill="#763D16" stroke="#763D16"/>
<path d="M75.5659 170.033L32.7225 184.647L21.7661 142.165L75.5659 170.033Z" fill="#E4761B" stroke="#E4761B"/>
<path d="M208.234 142.165L197.278 184.647L154.434 170.033L208.234 142.165Z" fill="#E4761B" stroke="#E4761B"/>
<path d="M62.1323 48.8086L101.475 66.5065L74.2675 90.2988L62.1323 48.8086Z" fill="#763D16" stroke="#763D16"/>
<path d="M155.733 90.2988L128.525 66.5065L167.868 48.8086L155.733 90.2988Z" fill="#763D16" stroke="#763D16"/>
<path d="M24.363 75.3493L28.3499 72.6497L30.0895 79.9135L24.363 75.3493Z" fill="#763D16" stroke="#763D16"/>
<path d="M205.637 75.3493L199.91 79.9135L201.65 72.6497L205.637 75.3493Z" fill="#763D16" stroke="#763D16"/>
<path d="M62.4734 105.015L21.7661 142.165L35.6872 101.155L62.4734 105.015Z" fill="#F6851B" stroke="#F6851B"/>
<path d="M167.527 105.015L194.313 101.155L208.234 142.165L167.527 105.015Z" fill="#F6851B" stroke="#F6851B"/>
<path d="M31.2436 88.6357L25.5737 83.1809L30.0896 79.9135L31.2436 88.6357Z" fill="#763D16" stroke="#763D16"/>
<path d="M198.756 88.6357L199.91 79.9135L204.426 83.1809L198.756 88.6357Z" fill="#763D16" stroke="#763D16"/>
<path d="M56.3019 138.649L21.7661 142.165L62.4734 105.015L56.3019 138.649Z" fill="#F6851B" stroke="#F6851B"/>
<path d="M167.527 105.015L208.234 142.165L173.698 138.649L167.527 105.015Z" fill="#F6851B" stroke="#F6851B"/>
<path d="M21.7661 142.165L56.3019 138.649L75.5659 170.033L21.7661 142.165Z" fill="#E4761B" stroke="#E4761B"/>
<path d="M154.434 170.033L173.698 138.649L208.234 142.165L154.434 170.033Z" fill="#E4761B" stroke="#E4761B"/>
<path d="M35.6872 101.155L27.5498 91.122L31.2436 88.6357L35.6872 101.155Z" fill="#763D16" stroke="#763D16"/>
<path d="M194.313 101.155L198.756 88.6357L202.45 91.122L194.313 101.155Z" fill="#763D16" stroke="#763D16"/>
<path d="M28.35 72.6497L23.0454 42.6008L62.1323 48.8086L28.35 72.6497Z" fill="#763D16" stroke="#763D16"/>
<path d="M167.868 48.8086L206.955 42.6008L201.65 72.6497L167.868 48.8086Z" fill="#763D16" stroke="#763D16"/>
<path d="M35.6873 101.155L74.2677 90.2988L62.4735 105.015L35.6873 101.155Z" fill="#F6851B" stroke="#F6851B"/>
<path d="M194.313 101.155L167.527 105.015L155.732 90.2988L194.313 101.155Z" fill="#F6851B" stroke="#F6851B"/>
<path d="M74.2676 90.2988L101.475 66.5065L103.776 105.721L74.2676 90.2988Z" fill="#E4761B" stroke="#E4761B"/>
<path d="M103.776 105.721L62.4734 105.015L74.2675 90.2988L103.776 105.721Z" fill="#E4761B" stroke="#E4761B"/>
<path d="M155.732 90.2988L167.527 105.015L126.224 105.721L155.732 90.2988Z" fill="#E4761B" stroke="#E4761B"/>
<path d="M126.224 105.721L128.525 66.5065L155.732 90.2988L126.224 105.721Z" fill="#E4761B" stroke="#E4761B"/>
<path d="M32.8008 14.8241L101.475 66.5065L62.1324 48.8086L32.8008 14.8241Z" fill="#763D16" stroke="#763D16"/>
<path d="M197.199 14.8241L206.955 42.6008L167.868 48.8086L197.199 14.8241Z" fill="#763D16" stroke="#763D16"/>
<path d="M62.1323 48.8086L23.0454 42.6008L32.8008 14.8241L62.1323 48.8086Z" fill="#763D16" stroke="#763D16"/>
<path d="M167.868 48.8086L128.525 66.5065L197.199 14.8241L167.868 48.8086Z" fill="#763D16" stroke="#763D16"/>
<path d="M101.475 66.5065H128.525L126.224 105.721L101.475 66.5065Z" fill="#F6851B" stroke="#F6851B"/>
<path d="M126.224 105.721H103.776L101.475 66.5065L126.224 105.721Z" fill="#F6851B" stroke="#F6851B"/>
<path d="M75.5658 170.033L56.3018 138.649L79.4314 137.967L75.5658 170.033Z" fill="#CD6116" stroke="#CD6116"/>
<path d="M154.434 170.033L150.569 137.967L173.698 138.649L154.434 170.033Z" fill="#CD6116" stroke="#CD6116"/>
<path d="M78.9938 121.267L62.4734 105.015L103.776 105.721L78.9938 121.267Z" fill="#CD6116" stroke="#CD6116"/>
<path d="M126.224 105.721L167.527 105.015L151.006 121.267L126.224 105.721Z" fill="#CD6116" stroke="#CD6116"/>
<path d="M62.4733 105.015L79.4314 137.967L56.3018 138.649L62.4733 105.015Z" fill="#F6851B" stroke="#F6851B"/>
<path d="M173.698 138.649L150.569 137.967L167.527 105.015L173.698 138.649Z" fill="#F6851B" stroke="#F6851B"/>
<path d="M62.4734 105.015L78.9938 121.267L79.4315 137.967L62.4734 105.015Z" fill="#E4751F" stroke="#E4751F"/>
<path d="M167.527 105.015L150.569 137.967L151.006 121.267L167.527 105.015Z" fill="#E4751F" stroke="#E4751F"/>
<path d="M83.7542 175.324L75.5659 170.033L99.1905 174.567L83.7542 175.324Z" fill="#C0AD9E" stroke="#C0AD9E"/>
<path d="M130.81 174.567L154.434 170.033L146.246 175.324L130.81 174.567Z" fill="#C0AD9E" stroke="#C0AD9E"/>
<path d="M99.029 166.039L99.1905 174.567L75.5659 170.033L99.029 166.039Z" fill="#D7C1B3" stroke="#D7C1B3"/>
<path d="M130.971 166.039L154.434 170.033L130.81 174.567L130.971 166.039Z" fill="#D7C1B3" stroke="#D7C1B3"/>
<path d="M101.076 149.004L75.5659 170.033L79.4315 137.967L101.076 149.004Z" fill="#E4761B" stroke="#E4761B"/>
<path d="M128.924 149.004L150.569 137.967L154.434 170.033L128.924 149.004Z" fill="#E4761B" stroke="#E4761B"/>
<path d="M75.5659 170.033L101.076 149.004L99.029 166.039L75.5659 170.033Z" fill="#D7C1B3" stroke="#D7C1B3"/>
<path d="M154.434 170.033L130.971 166.039L128.924 149.004L154.434 170.033Z" fill="#D7C1B3" stroke="#D7C1B3"/>
<path d="M103.776 105.721L93.7922 114.406L78.9939 121.267L103.776 105.721Z" fill="#CD6116" stroke="#CD6116"/>
<path d="M151.006 121.267L136.208 114.406L126.224 105.721L151.006 121.267Z" fill="#CD6116" stroke="#CD6116"/>
<path d="M79.4315 137.967L78.9939 121.266L99.8764 126.661L79.4315 137.967Z" fill="#F6851B" stroke="#F6851B"/>
<path d="M150.568 137.967L130.124 126.661L151.006 121.266L150.568 137.967Z" fill="#F6851B" stroke="#F6851B"/>
<path d="M99.8764 126.661L78.9939 121.267L93.7922 114.406L99.8764 126.661Z" fill="#233447" stroke="#233447"/>
<path d="M130.124 126.661L136.208 114.406L151.006 121.267L130.124 126.661Z" fill="#233447" stroke="#233447"/>
<path d="M93.7922 114.406L103.776 105.721L99.8764 126.661L93.7922 114.406Z" fill="#CD6116" stroke="#CD6116"/>
<path d="M136.208 114.406L130.124 126.661L126.224 105.721L136.208 114.406Z" fill="#CD6116" stroke="#CD6116"/>
<path d="M104.678 118.102L103.776 105.721H126.224L104.678 118.102Z" fill="#F6851B" stroke="#F6851B"/>
<path d="M126.224 105.721L125.322 118.102H104.678L126.224 105.721Z" fill="#F6851B" stroke="#F6851B"/>
<path d="M99.8762 126.661L103.776 105.721L104.678 118.102L99.8762 126.661Z" fill="#E4751F" stroke="#E4751F"/>
<path d="M130.124 126.661L125.322 118.102L126.224 105.721L130.124 126.661Z" fill="#E2761B" stroke="#E2761B"/>
<path d="M99.1905 174.567L100.574 181.596L83.7542 175.324L99.1905 174.567Z" fill="#C0AD9E" stroke="#C0AD9E"/>
<path d="M146.246 175.324L129.426 181.596L130.81 174.567L146.246 175.324Z" fill="#C0AD9E" stroke="#C0AD9E"/>
<path d="M101.076 149.004L79.4314 137.967L99.8762 126.661L101.076 149.004Z" fill="#F6851B" stroke="#F6851B"/>
<path d="M130.124 126.661L150.569 137.967L128.924 149.004L130.124 126.661Z" fill="#F6851B" stroke="#F6851B"/>
<path d="M104.678 118.102L104.669 146.501L99.8762 126.661L104.678 118.102Z" fill="#E4751F" stroke="#E4751F"/>
<path d="M125.322 118.102L130.124 126.661L125.331 146.501L125.322 118.102Z" fill="#E4751F" stroke="#E4751F"/>
<path d="M99.8762 126.661L104.669 146.501L101.076 149.004L99.8762 126.661Z" fill="#F6851B" stroke="#F6851B"/>
<path d="M128.924 149.004L125.331 146.501L130.124 126.661L128.924 149.004Z" fill="#F6851B" stroke="#F6851B"/>
<path d="M104.678 118.102H125.322L125.331 146.501L104.678 118.102Z" fill="#F6851B" stroke="#F6851B"/>
<path d="M125.331 146.501H104.669L104.678 118.102L125.331 146.501Z" fill="#F6851B" stroke="#F6851B"/>
<path d="M100.574 181.596L99.1906 174.567L99.0291 166.039L100.574 181.596Z" fill="#C0AD9E" stroke="#C0AD9E"/>
<path d="M130.971 166.039L130.81 174.567L129.426 181.596L130.971 166.039Z" fill="#C0AD9E" stroke="#C0AD9E"/>
<path d="M99.0291 166.039L100.883 163.657L100.574 181.596L99.0291 166.039Z" fill="#C0AD9E" stroke="#C0AD9E"/>
<path d="M100.574 181.596L100.883 163.657H129.117L100.574 181.596Z" fill="#C0AD9E" stroke="#C0AD9E"/>
<path d="M129.117 163.657L129.426 181.596H100.574L129.117 163.657Z" fill="#C0AD9E" stroke="#C0AD9E"/>
<path d="M129.426 181.596L129.117 163.657L130.971 166.039L129.426 181.596Z" fill="#C0AD9E" stroke="#C0AD9E"/>
<path d="M100.883 163.658L99.0291 166.039L101.076 149.004L100.883 163.658Z" fill="#161616" stroke="#161616"/>
<path d="M128.924 149.004L130.971 166.039L129.117 163.658L128.924 149.004Z" fill="#161616" stroke="#161616"/>
<path d="M104.473 148.621L104.669 146.501H125.331L104.473 148.621Z" fill="#161616" stroke="#161616"/>
<path d="M125.331 146.501L125.527 148.621H104.473L125.331 146.501Z" fill="#161616" stroke="#161616"/>
<path d="M101.076 149.004L104.669 146.501L104.473 148.621L101.076 149.004Z" fill="#161616" stroke="#161616"/>
<path d="M125.527 148.621L125.331 146.501L128.924 149.004L125.527 148.621Z" fill="#161616" stroke="#161616"/>
<path d="M101.076 149.004L102.174 151.217L100.883 163.658L101.076 149.004Z" fill="#161616" stroke="#161616"/>
<path d="M104.473 148.622L102.174 151.217L101.076 149.004L104.473 148.622Z" fill="#161616" stroke="#161616"/>
<path d="M129.117 163.658L127.826 151.217L128.924 149.004L129.117 163.658Z" fill="#161616" stroke="#161616"/>
<path d="M128.924 149.004L127.826 151.217L125.527 148.622L128.924 149.004Z" fill="#161616" stroke="#161616"/>
<path d="M102.174 151.217H127.826L129.117 163.657L102.174 151.217Z" fill="#161616" stroke="#161616"/>
<path d="M129.117 163.657H100.883L102.174 151.217L129.117 163.657Z" fill="#161616" stroke="#161616"/>
<path d="M125.527 148.622L127.826 151.217H102.174L125.527 148.622Z" fill="#161616" stroke="#161616"/>
<path d="M102.174 151.217L104.473 148.622H125.527L102.174 151.217Z" fill="#161616" stroke="#161616"/>
</svg>
