<svg width="1444" height="987" viewBox="0 0 1444 987" fill="none" xmlns="http://www.w3.org/2000/svg">
<path opacity="0.98" fill-rule="evenodd" clip-rule="evenodd" d="M50.1633 0L1392.9 0C1410.34 0 1416.67 1.83533 1423.05 5.28168C1429.42 8.72804 1434.43 13.7854 1437.84 20.2296C1441.25 26.6737 1443.06 33.0656 1443.06 50.6925V965.64C1443.06 972.949 1442.31 975.599 1440.9 978.271C1439.48 980.943 1437.41 983.04 1434.76 984.469C1432.12 985.898 1429.5 986.659 1422.26 986.659H20.7994C13.567 986.659 10.9444 985.898 8.3003 984.469C5.65624 983.04 3.58116 980.943 2.1671 978.271C0.753044 975.599 0 972.949 0 965.64V50.6925C0 33.0656 1.81617 26.6737 5.22654 20.2296C8.63692 13.7854 13.6415 8.72804 20.0184 5.28168C26.3952 1.83533 32.7204 0 50.1633 0Z" fill="black"/>
</svg>
