<svg width="1440" height="888" viewBox="0 0 1440 888" fill="none" xmlns="http://www.w3.org/2000/svg">
<g opacity="0.504511">
<path fill-rule="evenodd" clip-rule="evenodd" d="M1154.08 619.632C1166.63 699.694 862.15 751.916 600.075 715.472C338 679.027 217.773 536.709 342.831 460.876C467.888 385.042 1141.52 539.57 1154.08 619.632Z" fill="#F2F2F2"/>
</g>
<path fill-rule="evenodd" clip-rule="evenodd" d="M777.418 286.011C782.155 282.923 789.505 284.891 794.275 286.713C796.112 287.416 800.808 289.664 804.292 292.194C803.831 290.44 803.421 288.671 803.062 286.888C801.589 279.556 800.574 272.085 800.086 264.657C799.959 262.72 800.124 260.555 800.292 258.362L800.292 258.362C800.349 257.619 800.406 256.873 800.452 256.131C800.261 255.956 800.132 255.714 800.078 255.386C800.058 255.522 800.047 255.631 800.038 255.714C800.024 255.848 800.017 255.915 799.992 255.922C799.967 255.93 799.923 255.872 799.834 255.756C799.8 255.711 799.759 255.658 799.71 255.596C796.186 251.101 793.226 246.035 792.819 240.467C792.475 235.744 797.025 226.809 803.474 232.994C806.359 235.757 805.61 255.159 801.276 256.348C802.434 262.777 803.89 269.195 805.713 275.532C805.986 275.49 806.265 275.487 806.541 275.519C806.514 273.943 806.512 272.224 806.587 271.633C807.237 266.541 812.224 256.203 820.164 258.21C826.265 259.753 822.525 266.103 820.449 268.882C817.107 273.356 813.326 275.294 808.538 277.621C808.442 278.583 807.715 279.142 806.857 279.323C810.063 289.557 814.275 299.537 819.787 308.965L819.934 308.366L819.934 308.366C820.634 305.504 821.45 302.168 821.966 301.467C824.668 297.799 830.649 293.32 836.164 295.49C847.747 300.054 835.174 313.171 825.313 314.598C824.903 315.081 824.469 315.47 824.008 315.692C825.924 318.538 827.972 321.325 830.163 324.039C833.449 328.123 836.981 332.193 840.683 336.24C840.797 333.074 842.263 326.02 842.678 325.262C845.207 320.659 852.495 315.922 858.408 319.192C865.058 322.879 859.028 329.846 855.235 332.999C853.681 334.292 845.991 339.029 843.279 339.051C852.224 348.593 862.098 357.972 872.136 367.012C871.305 362.965 870.218 351.82 870.34 350.583C870.963 344.199 875.882 333.987 885.573 336.475C894.974 338.885 890.815 349.494 887.597 354.551C885.648 357.611 882.952 360.721 879.702 362.856C879.116 363.24 878.35 363.554 877.587 363.868C876.666 364.246 875.746 364.623 875.146 365.122C874.61 365.567 874.446 366.078 874.283 366.585C874.111 367.12 873.94 367.65 873.336 368.093C878.761 372.957 884.224 377.72 889.609 382.351C892.15 384.536 894.737 386.679 897.35 388.796C898.779 388.29 900.817 388.955 900.711 390.682C900.695 390.933 900.627 391.149 900.536 391.347C902.515 392.919 904.508 394.479 906.516 396.022C906.47 395.572 906.483 394.938 906.576 394.063C905.13 395.817 905.19 393.262 905.236 391.314L905.237 391.314C905.253 390.625 905.267 390.013 905.213 389.693C905 388.441 904.726 387.202 904.451 385.964C903.865 383.32 903.28 380.685 903.31 377.956C903.373 372.165 907.672 362.456 916.72 365.905C925.039 369.07 922.012 377.654 918.874 383.036C916.887 386.441 914.169 389.482 911.327 392.393C910.821 392.913 910.258 393.616 909.702 394.313C908.875 395.347 908.061 396.366 907.459 396.746C915.183 402.653 923.089 408.387 930.996 414.121L930.997 414.122C934.538 416.69 938.08 419.259 941.605 421.843C941.758 421.275 941.885 420.713 941.994 420.187C941.774 420.399 941.474 420.499 941.089 420.479C940.986 420.045 940.838 419.467 940.66 418.774L940.659 418.773C938.482 410.302 931.851 384.503 949.807 389.503C962.962 393.177 953.676 415.642 943.864 423.5C949.819 427.888 955.717 432.331 961.477 436.908C965.644 440.219 969.689 443.644 973.58 447.183C971.567 442.6 969.67 436.668 970.915 431.947C972.728 425.077 981.222 418.59 989.515 422.5C999.854 427.394 991.9 434.079 984.441 440.347C980.633 443.548 976.953 446.64 975.904 449.33C988.273 460.939 998.832 473.835 1005.89 488.526C1013.56 504.502 1020.68 525.968 1016.74 543.842C1017.47 535.983 1014.36 526.115 1012.18 519.185L1012.18 519.184C1011.88 518.241 1011.6 517.352 1011.35 516.529C1008.06 505.781 1003.4 495.323 997.255 485.534C987.411 469.857 974.407 456.549 959.395 444.466C955.977 445.482 952.264 447.365 949.189 448.924C947.303 449.88 945.657 450.714 944.466 451.153C938.721 453.268 927.693 456.3 924.033 449.637C920.435 443.086 929.619 439.423 935.311 437.954C940.812 436.537 945.77 436.708 950.901 437.87C942.955 431.857 934.815 426.034 926.677 420.213L926.676 420.212C925.179 419.142 923.682 418.071 922.187 416.999C920.118 418.447 917.833 420.54 915.407 422.762C907.707 429.814 898.585 438.169 890.438 431.343C878.143 421.041 901.657 410.571 911.676 411.388C912.905 411.488 914.095 411.709 915.256 412.011C905.039 404.608 894.981 397.053 885.468 388.967C883.761 389.233 881.043 391.377 877.779 393.952C870.442 399.741 860.342 407.71 852.734 401.435C847.242 396.906 849.122 389.852 854.431 385.818C859.76 381.767 867.487 381.774 874.054 383.138C876.893 383.725 879.512 384.845 881.954 386.211C882.058 386.215 882.157 386.22 882.257 386.225C872.897 378.183 863.479 369.962 854.408 361.46C854.25 361.503 854.087 361.548 853.925 361.593C853.376 362.167 852.458 362.376 851.617 362.25C851.153 362.385 850.68 362.525 850.196 362.667C843.012 364.784 833.777 367.505 826.616 366.331C821.345 365.468 816.563 361.81 821.024 357.307C824.651 353.645 834.492 354.171 839.291 355.039C841.633 355.463 844.182 356.69 846.74 357.922C847.815 358.44 848.891 358.958 849.954 359.418C850.23 358.943 850.712 358.637 851.261 358.491C842.304 349.947 833.757 341.108 826.005 331.884C823.658 332.194 821.056 333.074 818.372 333.982C811.913 336.165 804.982 338.509 800.007 333.462C792.663 326.009 806.475 321.659 813.041 322.367C815.258 322.606 817.444 323.142 819.554 323.851C813.913 316.257 809.605 308.14 806.579 299.615C806.549 299.628 806.522 299.641 806.495 299.654C806.453 299.674 806.41 299.695 806.357 299.714C806.403 299.693 806.443 299.672 806.483 299.65L806.483 299.649C806.513 299.633 806.542 299.617 806.574 299.601C806.272 298.748 805.982 297.892 805.706 297.032C805.193 296.788 804.714 296.609 804.484 296.535C807.467 298.291 794.882 299.15 792.525 299.311C787.314 299.666 780.334 299.798 776.511 296.155C773.301 293.094 773.488 288.572 777.418 286.011ZM1017.3 543.867C1017.08 546.457 1016.53 548.829 1015.51 550.785C1016.28 548.558 1016.87 546.244 1017.3 543.867Z" fill="#F2F2F2"/>
<path opacity="0.2" fill-rule="evenodd" clip-rule="evenodd" d="M540.833 120.596C537.375 118.365 532.008 119.79 528.525 121.109C527.183 121.618 523.753 123.245 521.209 125.075C521.546 123.807 521.846 122.528 522.109 121.238C523.188 115.936 523.932 110.533 524.292 105.162C524.385 103.761 524.265 102.196 524.144 100.611L524.144 100.61L524.144 100.61C524.103 100.073 524.061 99.5333 524.028 98.9972C524.167 98.8704 524.261 98.6955 524.301 98.4584C524.316 98.5567 524.324 98.6355 524.33 98.6957C524.34 98.792 524.346 98.8409 524.363 98.8461C524.382 98.8515 524.414 98.8101 524.479 98.7258C524.504 98.6935 524.534 98.6549 524.57 98.6103C527.145 95.3585 529.309 91.6948 529.608 87.6681C529.861 84.2531 526.543 77.7932 521.831 82.2681C519.724 84.2667 520.262 98.2958 523.426 99.1542C522.578 103.803 521.512 108.445 520.178 113.027C519.979 112.998 519.775 112.995 519.574 113.018C519.594 111.879 519.597 110.636 519.542 110.209C519.07 106.527 515.433 99.0529 509.635 100.507C505.179 101.624 507.907 106.215 509.422 108.224C511.86 111.458 514.62 112.858 518.115 114.539C518.184 115.234 518.715 115.638 519.341 115.769C516.996 123.17 513.916 130.389 509.888 137.207L509.781 136.774L509.781 136.773C509.271 134.705 508.677 132.293 508.3 131.786C506.329 129.135 501.964 125.898 497.936 127.469C489.477 130.773 498.651 140.253 505.851 141.282C506.15 141.631 506.466 141.912 506.803 142.073C505.403 144.132 503.906 146.147 502.305 148.111C499.904 151.065 497.324 154.009 494.619 156.936C494.537 154.647 493.47 149.547 493.167 148.999C491.323 145.671 486.003 142.249 481.685 144.615C476.828 147.283 481.227 152.319 483.995 154.598C485.13 155.532 490.742 158.955 492.723 158.97C486.187 165.872 478.974 172.657 471.64 179.197C472.249 176.271 473.047 168.211 472.959 167.317C472.507 162.701 468.92 155.318 461.843 157.121C454.977 158.866 458.01 166.536 460.357 170.192C461.779 172.404 463.746 174.652 466.118 176.194C466.546 176.472 467.104 176.699 467.662 176.926L467.662 176.926C468.334 177.199 469.005 177.471 469.444 177.832C469.835 178.154 469.954 178.523 470.073 178.889C470.198 179.276 470.323 179.66 470.764 179.98C466.801 183.499 462.81 186.944 458.876 190.294C457.02 191.875 455.13 193.426 453.222 194.957C452.178 194.592 450.69 195.073 450.767 196.322C450.778 196.503 450.827 196.66 450.894 196.803C449.448 197.94 447.993 199.069 446.526 200.185C446.559 199.86 446.55 199.402 446.483 198.769C447.538 200.037 447.495 198.189 447.462 196.78C447.45 196.283 447.44 195.84 447.48 195.609C447.636 194.703 447.837 193.807 448.038 192.912L448.038 192.912C448.467 191 448.895 189.094 448.875 187.121C448.831 182.933 445.696 175.914 439.089 178.411C433.013 180.702 435.219 186.909 437.508 190.799C438.957 193.261 440.941 195.459 443.014 197.563C443.384 197.938 443.794 198.447 444.2 198.951L444.201 198.951C444.804 199.698 445.398 200.435 445.837 200.709C440.195 204.983 434.42 209.131 428.644 213.28C426.057 215.139 423.47 216.997 420.895 218.867C420.783 218.457 420.691 218.05 420.611 217.67C420.772 217.824 420.991 217.895 421.272 217.881C421.347 217.567 421.456 217.149 421.586 216.648L421.586 216.647C423.18 210.522 428.033 191.864 414.92 195.485C405.313 198.146 412.084 214.387 419.244 220.066C414.895 223.241 410.587 226.456 406.379 229.767C403.335 232.163 400.38 234.64 397.537 237.201C399.009 233.886 400.397 229.596 399.49 226.183C398.169 221.216 391.97 216.528 385.913 219.357C378.363 222.9 384.167 227.731 389.61 232.261C392.389 234.574 395.075 236.809 395.839 238.754C386.804 247.152 379.088 256.481 373.93 267.106C368.321 278.66 363.11 294.185 365.979 307.108C365.451 301.426 367.727 294.289 369.325 289.277C369.543 288.595 369.748 287.952 369.932 287.357C372.333 279.584 375.743 272.02 380.235 264.94C387.429 253.601 396.929 243.973 407.896 235.231C410.391 235.965 413.101 237.325 415.346 238.452L415.346 238.452C416.722 239.143 417.924 239.745 418.793 240.062C422.986 241.59 431.038 243.778 433.712 238.96C436.342 234.222 429.638 231.575 425.483 230.515C421.468 229.493 417.847 229.618 414.1 230.459C419.904 226.109 425.85 221.896 431.795 217.684L431.796 217.683C432.889 216.909 433.982 216.134 435.075 215.359C436.585 216.405 438.252 217.917 440.022 219.523C445.641 224.621 452.298 230.659 458.25 225.721C467.231 218.268 450.067 210.704 442.752 211.298C441.854 211.371 440.985 211.531 440.138 211.749C447.6 206.393 454.948 200.927 461.896 195.077C463.143 195.269 465.126 196.818 467.509 198.68C472.863 202.863 480.234 208.622 485.792 204.083C489.804 200.806 488.434 195.705 484.56 192.79C480.67 189.863 475.028 189.87 470.233 190.859C468.16 191.284 466.247 192.095 464.464 193.083C464.388 193.086 464.315 193.09 464.242 193.093C471.08 187.276 477.96 181.328 484.587 175.177C484.702 175.208 484.821 175.24 484.94 175.273C485.34 175.688 486.01 175.839 486.624 175.747C486.797 175.797 486.972 175.848 487.149 175.9C487.318 175.949 487.489 175.998 487.661 176.049C492.906 177.577 499.648 179.542 504.877 178.691C508.726 178.065 512.219 175.418 508.963 172.164C506.317 169.517 499.131 169.901 495.627 170.529C493.917 170.836 492.055 171.725 490.187 172.617C489.402 172.991 488.616 173.367 487.839 173.699C487.638 173.356 487.286 173.135 486.886 173.029C493.43 166.848 499.674 160.454 505.338 153.782C507.051 154.006 508.951 154.641 510.91 155.296C515.625 156.873 520.685 158.566 524.319 154.914C529.685 149.523 519.602 146.382 514.808 146.896C513.189 147.07 511.592 147.458 510.051 147.971C514.173 142.478 517.322 136.608 519.536 130.443C519.591 130.466 519.635 130.491 519.697 130.514C519.664 130.499 519.635 130.483 519.606 130.467C519.591 130.459 519.576 130.451 519.561 130.443C519.554 130.44 519.547 130.436 519.539 130.432C519.76 129.816 519.972 129.196 520.174 128.574C520.549 128.398 520.899 128.268 521.066 128.214C518.887 129.485 528.076 130.102 529.797 130.218C533.601 130.473 538.698 130.567 541.491 127.931C543.836 125.716 543.701 122.447 540.833 120.596ZM365.409 306.598C365.577 308.324 366.077 309.899 367.06 311.19C366.338 309.715 365.797 308.178 365.409 306.598Z" fill="#C1DEE2"/>
<g opacity="0.7">
<path fill-rule="evenodd" clip-rule="evenodd" d="M998.822 483.77C1012.47 483.062 1029.36 491.031 1030.82 505.871C1031.87 516.653 1031.55 527.405 1033.18 538.172C1034.49 546.776 1037.26 555.036 1041.04 562.874C1044.67 570.411 1052.2 576.827 1054.16 584.879C1055.41 590.01 1054.71 597.227 1052.99 602.245C1050.9 608.347 1052.01 607.865 1056.18 612.985C1064.36 623.018 1071.72 633.307 1076.93 645.29C1084.43 662.55 1089.35 682.725 1086.56 701.618C1086.21 704.017 1085.79 712.627 1082.49 713.229C1078.8 713.902 1080.52 708.978 1080.72 707.387C1081.97 697.238 1083.09 688.367 1081.58 678.059C1075.73 638.288 1047.2 612.085 1028.62 578.331C1027.6 576.59 1025.45 572.445 1023.95 569.711C1021.58 565.393 1019.2 557.179 1016 553.977C1009.96 547.947 1015.51 560.071 1016.69 562.385C1018.17 565.313 1019.81 568.425 1021.33 570.99C1028.3 582.882 1036.08 595.862 1043.28 608.121C1012.15 615.214 990.221 577.785 981.866 553.178C974.982 532.905 966.746 485.505 998.822 483.77Z" fill="#69A1AC"/>
<path fill-rule="evenodd" clip-rule="evenodd" d="M1181.81 446.121C1158.98 447.932 1144.33 462.992 1137.51 484.056C1133.83 495.407 1133.41 507.068 1131.37 518.734C1128.3 536.284 1121.69 549.585 1108.76 562.089C1104.76 565.961 1101.81 569.937 1099.72 574.191C1095.55 578.438 1091.93 583.244 1089.27 589.12C1085.87 596.624 1084.91 605.628 1088.83 613.109C1089.89 615.121 1092.52 619.158 1095.25 620.992C1085.03 642.752 1079.42 666.584 1080.05 690.386C1080.43 704.753 1081.13 719.127 1081.95 733.477C1082.17 737.33 1083.43 743.693 1085.31 737.231C1087.04 731.32 1084.87 722.041 1084.67 715.867C1083.7 685.786 1082.87 658.435 1095.25 630.331C1096.55 627.385 1097.92 624.463 1099.36 621.565C1099.44 621.516 1099.52 621.457 1099.6 621.4C1099.65 621.442 1099.7 621.487 1099.76 621.529C1099.85 621.365 1099.97 621.171 1100.12 620.954C1100.53 620.529 1100.89 619.993 1101.23 619.395C1102.33 617.873 1103.57 616.084 1103.58 615.105C1103.58 615.098 1103.58 615.086 1103.58 615.078C1111.24 602.565 1120.02 590.742 1128.99 579.149C1128.92 579.234 1138.72 565.897 1137.2 573.272C1136.47 576.827 1129.27 583.595 1126.36 587.36C1119.92 595.735 1112.36 606.348 1106.08 616.61C1105.24 617.096 1104.04 619.48 1103.18 621.257C1102.7 622.157 1102.26 623.064 1101.82 623.855C1124.08 631.208 1141.39 616.396 1153.2 599.168C1153.21 599.147 1153.22 599.126 1153.24 599.106C1156.83 594.346 1160.51 589.619 1165.11 585.856C1172.78 579.576 1180.99 578.468 1190.04 575.378C1214.7 566.951 1225.19 534.987 1228.52 511.27C1232.27 484.513 1213.89 443.483 1181.81 446.121Z" fill="#89C5CC"/>
<path fill-rule="evenodd" clip-rule="evenodd" d="M1136.72 371.19C1113.3 395.569 1101.98 429.383 1093.02 461.172C1083.01 496.676 1076.4 532.728 1076.15 569.642C1075.98 593.895 1075.32 618.299 1076.74 642.523C1077.24 651.126 1078.1 659.745 1079.46 668.255C1079.57 668.955 1082.63 687.958 1085.54 683.53C1087.2 681.012 1082.42 663.817 1082.06 660.953C1080.02 644.822 1079.55 628.573 1079.65 612.326C1079.81 585.575 1079.02 558.962 1081.73 532.309C1082.14 528.33 1082.46 524.151 1083.4 520.258C1084.41 516.119 1083.13 517.926 1086.4 516.287C1089.57 514.694 1093.5 514.922 1096.79 512.924C1109.87 504.997 1116.55 484.635 1121.76 471.275C1127.71 455.998 1131.33 439.706 1134.22 423.628C1136.34 411.816 1137.86 400.075 1138.72 388.11C1138.99 384.339 1139 380.396 1139.74 376.688C1139.94 375.688 1140.95 373.919 1140.91 373.033C1140.83 371.158 1139.7 370.056 1139.61 368.481C1138.63 369.363 1137.66 370.267 1136.72 371.19Z" fill="#89C5CC"/>
<path fill-rule="evenodd" clip-rule="evenodd" d="M1009 696C1009 736.317 1041.68 769 1082 769C1122.32 769 1155 736.317 1155 696" fill="#89C5CC"/>
<path fill-rule="evenodd" clip-rule="evenodd" d="M1132.03 632.085C1150.09 630.753 1170.27 645.329 1178.99 660.497C1186.01 672.726 1184.83 688.785 1180.49 701.778C1177.58 710.476 1171.24 722.878 1160.66 722.999C1147.43 723.15 1146.79 706.796 1146.54 697.236C1146.2 684.525 1144.59 673.453 1134.58 664.789C1133.34 663.72 1132.04 662.719 1130.75 661.718C1129.59 660.829 1128.44 659.941 1127.33 659.005C1127.16 658.855 1126.98 658.706 1126.8 658.556C1123.26 655.579 1119.54 652.453 1119.09 647.546C1118.43 640.436 1122.44 639.156 1128.57 640.477C1128.77 640.52 1129.31 640.723 1130.04 641C1133.17 642.186 1139.84 644.718 1138.58 641.692C1138.11 640.552 1136.37 639.648 1134.17 638.971C1128.5 638.354 1121.73 637.638 1119.79 638.066C1098.79 642.672 1090.62 671.755 1088.45 690.233C1088.21 692.227 1088.02 694.228 1087.86 696.232H1084C1084.27 691.393 1084.62 686.562 1085.43 681.776C1088.52 663.473 1098.2 636.591 1119.42 633.62C1120.2 633.51 1123.08 633.491 1126.57 633.696C1128.22 632.772 1130.08 632.213 1132.03 632.085Z" fill="#69A1AC"/>
</g>
<g opacity="0.5">
<path fill-rule="evenodd" clip-rule="evenodd" d="M418.223 350.445C422.425 344.453 430.224 329.235 436.138 327.094C439.948 325.715 438.837 339.98 438.884 342.7C439.067 353.224 438.043 363.681 436.778 374.116C434.498 392.937 427.045 409.697 416.822 425.715C411.562 433.957 405.391 442.3 396.845 447.442C392.912 449.811 388.179 450.207 384.294 452.248C379.769 454.623 382.233 452.703 380.194 457.417C377.363 463.963 376.457 472.408 375.147 479.392C369.132 511.455 354.568 680.945 357.093 713.558C357.317 716.449 353.287 717.14 353.085 713.611C352.016 694.9 361.27 565.322 365.94 522.947C370.609 480.571 375.334 443.134 380.071 428.474C385.819 410.687 396.199 389.298 404.84 372.711C408.854 365.006 413.229 357.565 418.223 350.445Z" fill="#69A1AC"/>
<path fill-rule="evenodd" clip-rule="evenodd" d="M449.414 558.278C460.349 550.25 472.186 565.401 462.29 573.43C456.82 577.868 451.101 576.29 447.882 572.591C445.792 575.139 443.836 577.803 441.956 580.052C436.229 586.909 430.817 593.928 425.644 601.111C414.898 616.035 405.689 631.801 396.06 647.278C386.558 662.554 377.132 677.908 368.519 693.571C361.223 706.841 351.498 722.452 349 737C352.79 706.146 367.172 676.49 384.298 649.291C401.285 622.314 420.779 592.853 447.081 571.564C444.404 567.627 444.33 562.008 449.414 558.278Z" fill="#C1DEE2"/>
<path fill-rule="evenodd" clip-rule="evenodd" d="M241.913 483.031C248.032 484.227 258.031 498.07 263.075 503.344C269.07 509.612 274.508 516.292 279.635 523.292C290.671 538.358 300.541 554.376 308.934 571.08C322.616 598.311 333.578 626.265 341.533 655.918C346.403 674.069 349.556 692.883 351.424 711.565C351.777 715.089 355.471 742.253 350.148 742.985C345.361 743.644 346.84 722.359 346.609 719.463C343.998 686.798 336.177 655.015 325.299 624.226C322.929 617.519 320.728 609.304 316.938 603.268C314.209 598.921 316.919 600.437 312.123 598.792C308.005 597.378 303.313 597.724 299.096 595.993C289.936 592.237 282.601 584.944 276.171 577.608C263.676 563.351 253.774 547.928 248.613 529.66C245.749 519.532 243.118 509.344 241.658 498.902C241.281 496.203 237.972 482.26 241.913 483.031Z" fill="#69A1AC"/>
<path fill-rule="evenodd" clip-rule="evenodd" d="M266.061 252.716C289.111 292.69 308.053 336.601 320.283 381.076C327.694 408.023 332.876 435.675 338.025 463.126C345.997 505.632 353.538 548.134 355.683 591.395C357.841 634.906 362.108 685.092 347.861 727C354.978 684.452 348.202 639.162 347.002 596.35C346.429 575.912 344.768 555.674 342.588 535.355C340.473 515.645 337.018 496.029 333.801 476.474C332.234 466.95 330.588 457.441 328.912 447.937C328.411 445.101 328.2 436.687 326.401 434.75C324.591 432.8 315.354 432.005 312.454 430.574C306.615 427.693 301.122 423.6 296.261 419.275C286.942 410.984 278.835 400.151 272.436 389.472C257.631 364.764 251.712 334.61 252.011 305.994C252.068 300.438 261.003 240.61 257.415 239.786C257.631 239.533 257.835 239.272 258.028 239C260.745 243.549 263.411 248.128 266.061 252.716Z" fill="#89C5CC"/>
<path fill-rule="evenodd" clip-rule="evenodd" d="M514.846 396.887C515.202 396.374 517.517 392.807 516.351 393.035C518.724 392.57 513.087 396.969 519 394.27C516.192 396.922 517.813 400.366 517.85 403.935C517.911 409.73 516.942 415.476 515.851 421.146C514.126 430.109 511.557 438.823 507.828 447.159C499.701 465.326 485.901 482.814 469.518 494.172C461.43 499.779 453.504 501.689 444.28 504.27C438.453 505.901 437.991 508.915 434.898 514.569C428.46 526.345 422.136 538.078 416.457 550.251C409.677 564.788 403.095 579.34 396.886 594.132C375.969 643.957 358.945 695.578 350.005 749C349.786 717.519 357.069 685.095 366.255 655.088C372.947 633.226 381.658 612.151 390.95 591.29C393.201 586.236 396.613 579.735 397.57 574.155C398.239 570.245 396.192 566.486 395.255 562.367C391.601 546.33 391.863 528.363 395.071 512.24C398.609 494.461 408.839 486.209 426.145 483.691C432.474 482.769 440.519 483.107 446.322 480.408C452.645 477.47 455.253 467.81 458.849 461.61C468.506 444.953 479.98 428.979 493.155 414.945C496.803 411.059 500.726 407.473 504.888 404.15C507.513 402.053 513.058 399.47 514.846 396.887Z" fill="#89C5CC"/>
<path fill-rule="evenodd" clip-rule="evenodd" d="M315.845 720.729C315.4 717.71 317.74 715 320.791 715H382.209C385.26 715 387.6 717.71 387.155 720.729L382.408 752.918C380.961 762.73 372.541 770 362.622 770H340.378C330.459 770 322.039 762.73 320.592 752.918L315.845 720.729Z" fill="#C1DEE2"/>
</g>
<path fill-rule="evenodd" clip-rule="evenodd" d="M265.418 731.456C265.418 752.743 267.098 770 289.646 770C312.194 770 313.873 752.743 313.873 731.456" fill="#F2F2F2"/>
<path fill-rule="evenodd" clip-rule="evenodd" d="M296.353 718.174C295.527 719.603 294.79 721.061 294.139 722.54C294.116 719.493 294.285 716.424 294.745 713.313C295.531 707.983 296.732 702.682 297.861 697.388C298.672 693.584 298.621 686.752 301.699 683.72C302.544 683.065 302.747 684.351 302.747 684.908C302.757 685.026 302.744 682.632 301.925 683.049C297.054 685.564 295.476 693.474 293.917 697.434C291.642 703.215 289.706 709.124 288.909 715.138C288.708 716.657 288.598 718.176 288.573 719.692C288.407 719.287 288.252 718.878 288.08 718.474C285.268 711.881 281.475 705.447 276.743 699.514C275.578 698.054 260.934 683.649 259.788 685.854C259.901 686.174 260.138 686.44 260.499 686.651C260.52 686.675 260.521 686.662 260.508 686.626C261.368 688.016 263.814 690.161 264.575 691.379C266.492 694.442 267.982 697.693 269.496 700.882C272.695 707.622 275.662 714.429 278.539 721.25C279.208 722.839 279.907 724.419 280.619 725.994C273.277 715.405 263.483 705.791 250 700.287C254.605 702.63 257.624 707.037 260.734 710.412C264.485 714.483 268.435 718.444 272.193 722.51C276.625 727.307 281.841 732.358 286.104 737.666C290.233 746.336 294.246 755.015 296.723 764.128C295.708 760.98 296.644 756.628 296.47 753.324C296.332 750.693 296.025 748.084 295.604 745.48C296.124 746.655 296.573 747.83 296.776 748.924C296.591 747.09 296.377 745.268 296.147 743.455C296.737 741.758 297.316 740.175 297.707 738.87C299.712 732.179 302.099 725.602 305.349 719.193C308.357 713.264 311.808 707.41 315.567 701.735C317.321 699.089 319.099 696.453 320.866 693.812C322.022 692.083 323.123 689.316 324.733 687.659C314.326 697.174 302.956 706.757 296.353 718.174Z" fill="#F2F2F2"/>
<path fill-rule="evenodd" clip-rule="evenodd" d="M1198.63 171.827C1195.65 161.876 1188.65 154.087 1181.37 146.951C1167.22 133.058 1159.61 124.468 1154.56 104.146C1151.6 92.1934 1148.58 79.5276 1139.17 70.8561C1132.31 64.5413 1120.52 59.2358 1111.36 63.7577C1097.26 72.1717 1093.48 89.4386 1094.9 104.9C1096.66 124.063 1105.61 135.88 1122.81 142.938C1132.5 146.913 1138.94 152.159 1144.2 161.299C1148.41 168.607 1150.86 177.759 1156.15 184.384C1164.05 194.289 1173.94 198.691 1186.13 197.046C1174.71 176.035 1161.37 154.826 1145.28 137.135C1143.77 135.357 1134.89 128.549 1136.68 125.518C1138.65 122.181 1147.77 134.718 1147.71 134.642C1152.39 140.01 1156.71 145.715 1160.96 151.475C1160.95 151.48 1160.94 151.483 1160.93 151.489C1165.3 157.4 1169.64 163.397 1173.9 169.469C1175.62 172.038 1177.3 174.639 1178.9 177.306C1181.26 181.219 1185 192.325 1188.85 194.731C1189.67 195.245 1190.44 195.533 1191.15 195.651C1193.78 199.956 1196.33 204.295 1198.77 208.685C1205.12 220.151 1210.57 232.257 1213.08 245.202C1213.81 248.981 1213.29 263.114 1215.87 265.842C1220.58 270.831 1219.2 261.223 1218.92 258.323C1216.58 234.31 1207.96 213.852 1195.44 193.664C1199.29 188.641 1199.84 175.859 1198.63 171.827Z" fill="#F2F2F2"/>
<path fill-rule="evenodd" clip-rule="evenodd" d="M1037.13 183.43C1042.1 177.573 1054.05 176.579 1061.36 176.971C1070.4 177.456 1079.69 179.658 1088.3 182.32C1102.47 186.704 1116.24 194.706 1128.73 202.451C1130.23 203.384 1148.76 214.529 1147.12 216.485C1145.5 218.423 1127.3 205.184 1123.25 202.902C1114.6 198.032 1106.66 192.272 1097.12 189.055C1087.25 185.724 1076.8 184.405 1066.42 184.496C1065.09 184.508 1060.74 183.579 1060.65 185.551C1060.55 187.479 1067.75 186.473 1069.02 186.485C1074.26 186.533 1079.53 187.026 1084.69 187.934C1094.37 189.635 1103.47 193.061 1111.75 198.317C1109.44 203.694 1103.9 206.173 1098.08 204.828C1093.06 203.664 1088.16 200.795 1083.23 199.966C1079.84 199.395 1076.45 199.735 1073.16 200.69C1064.49 203.209 1059.49 208.371 1049.96 204.78C1042.49 201.966 1029.99 191.853 1037.13 183.43Z" fill="#F2F2F2"/>
<path fill-rule="evenodd" clip-rule="evenodd" d="M1015.75 89.0513C1004.71 88.2462 992.388 97.0557 987.063 106.223C982.771 113.615 983.494 123.321 986.145 131.173C987.92 136.431 991.795 143.926 998.257 143.999C1006.34 144.091 1006.73 134.207 1006.89 128.428C1007.09 120.746 1008.08 114.054 1014.19 108.818C1014.95 108.171 1015.74 107.566 1016.54 106.961C1017.24 106.424 1017.94 105.887 1018.62 105.322C1018.73 105.231 1018.84 105.141 1018.95 105.05C1021.11 103.251 1023.38 101.361 1023.66 98.3961C1024.06 94.0986 1021.61 93.3252 1017.86 94.1236C1017.74 94.1493 1017.42 94.2724 1016.97 94.4397C1015.06 95.1566 1010.98 96.6865 1011.75 94.8577C1012.04 94.1686 1013.1 93.6225 1014.44 93.2134C1017.91 92.8405 1022.04 92.4078 1023.23 92.6663C1036.06 95.4502 1041.05 113.028 1042.38 124.196C1042.53 125.46 1042.65 126.729 1042.75 128H1045.1C1044.94 125.015 1044.73 122.036 1044.22 119.084C1042.33 108.022 1036.42 91.7749 1023.45 89.9794C1022.98 89.9125 1021.22 89.9012 1019.09 90.0249C1018.08 89.4665 1016.94 89.1289 1015.75 89.0513Z" fill="#F2F2F2"/>
<path fill-rule="evenodd" clip-rule="evenodd" d="M534.181 492.584C541.455 496.971 548.602 499.091 551.957 498.226C560.37 496.056 561.144 465.257 554.634 453.115C548.125 440.974 514.66 435.681 512.974 459.738C512.388 468.088 515.892 475.539 521.068 481.619L511.787 524.909H538.747L534.181 492.584Z" fill="#B28B67"/>
<path fill-rule="evenodd" clip-rule="evenodd" d="M557.18 458.567C556.913 456.993 556.26 455.246 555.733 453.757C555.054 451.837 554.027 450.106 552.896 448.475C550.767 445.404 548.214 442.631 545.394 440.33C540.244 436.126 533.688 433.701 527.241 434.488C523.986 434.886 520.826 436.129 518.136 438.197C515.707 440.065 513.369 442.816 510.223 443.013C506.799 443.228 503.661 440.204 500.915 438.337C497.819 436.231 494.526 434.697 490.908 434.101C484.846 433.102 479.152 435.151 474.975 440.128C470.529 445.424 467.298 453.19 470.217 460.207C470.76 461.511 471.458 462.611 472.46 463.522C473.378 464.358 474.782 465.247 475.154 466.583C475.55 468.002 474.368 469.833 473.91 471.114C473.253 472.949 472.714 474.876 472.905 476.87C473.22 480.146 475.277 483.273 477.45 485.426C479.66 487.616 482.38 488.873 485.286 489.452C487.226 489.839 489.209 490.052 491.181 489.907C492.16 489.835 493.024 489.563 493.972 489.346C494.895 489.136 495.41 489.381 496.193 489.887C499.828 492.239 503.736 493.149 507.934 492.799C511.476 492.504 515.559 491.645 518.449 489.216C521.659 486.518 521.595 482.798 520.84 478.824C521.64 479.221 523.853 479.466 522.53 477.885C522.006 477.258 521.016 477.003 520.344 476.635C519.561 476.206 518.766 475.651 518.158 474.952C515.704 472.126 518.183 466.376 521.268 465.428C525.852 464.02 526.878 470.507 530.15 472.185C532.032 473.15 534 471.831 535.409 470.485C537.298 468.681 538.584 466.291 539.695 463.86C540.611 461.857 541.462 459.826 542.395 457.834C542.831 456.903 544.339 454.273 543.581 453.22C546.864 452.565 550.521 453.931 553.349 455.721C554.517 456.461 555.408 457.277 556.032 458.584C556.165 458.864 556.456 459.696 556.821 459.73C557.501 459.794 557.247 458.963 557.18 458.567Z" fill="#191847"/>
<path fill-rule="evenodd" clip-rule="evenodd" d="M443.537 666.548C434.7 666.548 427.537 673.712 427.537 682.548V789.939C427.537 798.776 434.7 805.939 443.537 805.939H576.667C585.503 805.939 592.667 798.776 592.667 789.939V682.548C592.667 673.712 585.503 666.548 576.667 666.548H443.537ZM462.99 698.024C460.781 698.024 458.99 699.814 458.99 702.024V770.464C458.99 772.673 460.781 774.464 462.99 774.464H557.213C559.422 774.464 561.213 772.673 561.213 770.464V702.023C561.213 699.814 559.422 698.024 557.213 698.024H462.99Z" fill="#C5CFD6"/>
<path fill-rule="evenodd" clip-rule="evenodd" d="M704.055 800.319C681.908 773.254 666.922 753.19 659.099 740.126C645.703 717.757 634.739 697.853 631.279 690.249C623.028 672.118 650.273 663.628 656.439 672.085C665.772 684.885 685.703 725.163 716.233 792.919L704.055 800.319Z" fill="#B28B67"/>
<path fill-rule="evenodd" clip-rule="evenodd" d="M658.671 792.45L617.453 688.622C608.638 669.695 651.21 657.254 657.689 666.062C672.398 686.06 707.358 764.947 711.74 770.905L658.671 792.45Z" fill="#2F3676"/>
<path fill-rule="evenodd" clip-rule="evenodd" d="M548.894 771.628C556.923 759.908 586.127 720.477 602.034 704.162C606.605 699.474 611.065 694.974 615.284 690.781C627.822 678.317 652.792 699.266 640.276 710.619C609.107 738.891 563.63 777.057 559.83 780.46C554.505 785.23 543.848 778.993 548.894 771.628Z" fill="#B28B67"/>
<path fill-rule="evenodd" clip-rule="evenodd" d="M553.938 766.586C553.251 765.637 551.909 765.414 551.011 766.164C549.172 767.7 546.363 770.201 545.374 771.916C543.855 774.55 541.817 780.108 541.817 780.108C544.869 781.872 596.686 811.809 596.686 811.809C596.686 811.809 602.907 805.969 598.625 802.743C594.342 799.516 591.557 797.301 591.557 797.301L572.543 771.086C572.212 770.63 571.57 770.537 571.124 770.881L567.088 773.991C567.088 773.991 561.673 773.518 559.006 771.977C557.315 771 555.235 768.376 553.938 766.586Z" fill="#E4E4E4"/>
<path fill-rule="evenodd" clip-rule="evenodd" d="M697.397 794.909C696.328 794.431 695.054 794.908 694.651 796.008C693.826 798.258 692.643 801.829 692.643 803.81C692.643 806.85 693.656 812.684 693.656 812.684C697.181 812.684 757.014 812.684 757.014 812.684C757.014 812.684 759.483 804.513 754.162 803.862C748.842 803.211 745.322 802.686 745.322 802.686L715.758 789.497C715.244 789.267 714.641 789.508 714.426 790.029L712.485 794.741C712.485 794.741 707.559 797.041 704.48 797.041C702.527 797.041 699.415 795.81 697.397 794.909Z" fill="#E4E4E4"/>
<path fill-rule="evenodd" clip-rule="evenodd" d="M602.622 693.808C602.622 693.808 551.235 685.431 533.782 682.351C500.618 676.499 490.947 658.64 496.665 619.675L557.769 619.675C569.899 623.18 659.131 663.031 659.131 663.031C669.835 668.348 667.841 684.025 665.885 689.19C665.765 689.506 611.755 782.01 611.755 782.01L561.768 750.144L602.716 697.563C602.716 697.563 604.338 694.294 602.622 693.808Z" fill="#5C63AB"/>
<path fill-rule="evenodd" clip-rule="evenodd" d="M439.217 668.693C442.509 662.01 458.956 576 458.956 576L483.554 576.092C483.554 576.092 455.452 667.203 453.719 671.5C451.468 677.083 455.292 685.194 457.885 690.694C458.286 691.545 458.658 692.333 458.973 693.04C455.375 694.651 453.647 692.704 451.825 690.651C449.767 688.332 447.589 685.879 442.463 688.265C440.483 689.187 438.609 690.278 436.778 691.343C430.454 695.021 424.644 698.401 416.74 693.521C415.487 692.747 414.114 689.834 417.432 687.557C425.697 681.886 437.608 671.96 439.217 668.693ZM646.386 635.18L614.564 604.115L603.995 622.415L637.085 641.938C645.382 655.018 650.255 660.669 651.704 658.892C652.926 657.394 652.366 655.752 651.85 654.24C651.448 653.062 651.073 651.962 651.588 651.07C652.764 649.034 659.408 650.2 665.665 651.577C671.923 652.953 670.475 649.877 669.145 648.272C663.231 643.496 655.645 639.132 646.386 635.18Z" fill="#B28B67"/>
<path fill-rule="evenodd" clip-rule="evenodd" d="M533.911 506.172L543.624 504.505C558.926 558.633 637.547 595.529 642.373 615.764C644.143 623.184 638.806 626.936 641.563 629.196L628.937 638.445C626.799 635.949 622.237 640.515 612.708 637.321C603.18 634.127 533.911 570.265 533.911 506.172Z" fill="#DB2721"/>
<path fill-rule="evenodd" clip-rule="evenodd" d="M516.142 494.837C513.939 494.682 512.027 496.344 511.873 498.548L511.379 505.628C493.098 519.705 447.79 561.772 435.983 640.083C434.743 648.309 436.986 652.715 438.778 656.235C440.004 658.644 441.019 660.638 440.563 663.156L457.087 667.721C457.087 665.861 459.17 664.446 461.857 662.621C465.763 659.967 470.947 656.445 472.864 649.425C474.681 642.77 477.342 634.459 480.521 625.213C480.821 637.458 483.141 648.72 488.197 658.047C500.809 681.317 573.692 655.798 581.307 632.058C585.37 619.39 579.604 608.755 571.979 594.689C562.3 576.834 549.624 553.452 550.25 513.368L551.094 501.292C551.248 499.088 549.586 497.177 547.383 497.023L516.142 494.837Z" fill="#FF4133"/>
<path fill-rule="evenodd" clip-rule="evenodd" d="M850.823 421.65C843.538 426.041 836.38 428.162 833.02 427.296C824.594 425.125 823.82 394.302 830.339 382.151C836.858 369.999 870.372 364.703 872.061 388.779C872.647 397.134 869.139 404.592 863.955 410.676L873.25 454H846.25L850.823 421.65Z" fill="#B28B67"/>
<path fill-rule="evenodd" clip-rule="evenodd" d="M832.102 377.439C832.338 375.971 831.87 375.25 837.773 371.114C843.677 366.977 853.208 362.099 862.808 364.222C875.267 366.977 880.215 375.195 885.019 379.19C889.35 382.792 893.695 383.212 896.271 387.681C898.846 392.15 900.216 405.008 897.977 410.119C894.888 417.171 888.796 419.07 884.349 421.101C876.723 424.585 865.944 420.906 865.683 420.296C863.663 415.581 852.79 402.28 846.25 396.692C841.441 392.583 830.992 384.33 832.102 377.439Z" fill="#5C63AB"/>
<mask id="mask0" mask-type="alpha" maskUnits="userSpaceOnUse" x="832" y="363" width="68" height="60">
<path fill-rule="evenodd" clip-rule="evenodd" d="M832.102 377.439C832.338 375.971 831.87 375.25 837.773 371.114C843.677 366.977 853.208 362.099 862.808 364.222C875.267 366.977 880.215 375.195 885.019 379.19C889.35 382.792 893.695 383.212 896.271 387.681C898.846 392.15 900.216 405.008 897.977 410.119C894.888 417.171 888.796 419.07 884.349 421.101C876.723 424.585 865.944 420.906 865.683 420.296C863.663 415.581 852.79 402.28 846.25 396.692C841.441 392.583 830.992 384.33 832.102 377.439Z" fill="white"/>
</mask>
<g mask="url(#mask0)">
<path fill-rule="evenodd" clip-rule="evenodd" d="M869.162 411.501C882.073 395.578 885.111 376.375 885.111 376.375L889 378.835C889 378.835 884.217 399.82 869.162 411.501ZM864.25 420.25C885.144 401.891 890.127 381.26 890.127 381.26L894.625 382.586C894.625 382.586 888.426 405.657 864.25 420.25Z" fill="black" fill-opacity="0.2"/>
</g>
<path fill-rule="evenodd" clip-rule="evenodd" d="M891.213 549L848.941 687.467L828.464 805.223H812.408L834.046 549H891.213Z" fill="#997659"/>
<path fill-rule="evenodd" clip-rule="evenodd" d="M906.336 549C903.465 625.026 906.844 664.241 907.486 671.148C908.129 678.055 916.928 722.842 937.76 807.542L920.651 801.655C887.729 723.973 876.51 683.6 872.734 673.399C868.958 663.199 858.929 621.732 842.648 549H906.336Z" fill="#B28B67"/>
<path fill-rule="evenodd" clip-rule="evenodd" d="M934.761 800.204C935.831 799.725 937.106 800.203 937.509 801.303C938.334 803.556 939.517 807.132 939.517 809.115C939.517 812.159 938.504 818 938.504 818C934.979 818 875.146 818 875.146 818C875.146 818 872.676 809.819 877.997 809.167C883.318 808.515 886.838 807.989 886.838 807.989L916.401 794.784C916.916 794.554 917.519 794.795 917.734 795.317L919.675 800.035C919.675 800.035 924.601 802.338 927.68 802.338C929.632 802.338 932.743 801.106 934.761 800.204Z" fill="#E4E4E4"/>
<path fill-rule="evenodd" clip-rule="evenodd" d="M829.168 800.204C830.238 799.725 831.513 800.203 831.916 801.303C832.74 803.556 833.923 807.132 833.923 809.115C833.923 812.159 832.911 818 832.911 818C829.386 818 769.553 818 769.553 818C769.553 818 767.083 809.819 772.404 809.167C777.725 808.515 781.245 807.989 781.245 807.989L810.808 794.784C811.323 794.554 811.926 794.795 812.14 795.317L814.082 800.035C814.082 800.035 819.007 802.338 822.087 802.338C824.039 802.338 827.15 801.106 829.168 800.204Z" fill="#E4E4E4"/>
<path fill-rule="evenodd" clip-rule="evenodd" d="M896.83 549L878.857 619.547H823.959L832.145 549H896.83Z" fill="#69A1AC"/>
<path fill-rule="evenodd" clip-rule="evenodd" d="M906.94 549C915.811 575.642 910.31 619.547 910.31 619.547H854.289L838.885 549H906.94Z" fill="#89C5CC"/>
<path fill-rule="evenodd" clip-rule="evenodd" d="M736.054 436.841L780.059 443.56L771.798 463.004L736.255 448.331C720.801 449.573 713.347 449.082 713.894 446.857C714.356 444.981 716.006 444.44 717.525 443.942C718.709 443.555 719.814 443.193 720.217 442.245C721.136 440.082 716.201 435.48 711.331 431.313C706.461 427.145 709.792 426.451 711.876 426.547C719.257 428.396 727.316 431.827 736.054 436.841ZM762.359 548.395L794.235 517.352L804.815 535.633L771.672 555.145C763.359 568.214 758.478 573.861 757.027 572.086C755.804 570.59 756.365 568.949 756.882 567.438C757.285 566.261 757.661 565.162 757.145 564.272C755.968 562.238 749.315 563.404 743.048 564.781C736.781 566.158 738.232 563.084 739.564 561.48C745.488 556.708 753.086 552.346 762.359 548.395Z" fill="#B28B67"/>
<path fill-rule="evenodd" clip-rule="evenodd" d="M839.573 439.444C825.283 478.183 801.18 509.727 764.645 544.132L782.436 559.262C825.371 536.093 847.853 522.595 854.81 486.914C856.556 477.959 854.789 450.442 854.542 435.869L839.573 439.444Z" fill="#2026A2"/>
<path fill-rule="evenodd" clip-rule="evenodd" d="M910.538 551.848L824.756 563.904C824.756 563.904 841.432 471.073 837.416 437.916C837.279 436.789 839.081 434.516 840.037 434.646C850.529 436.073 861.336 429.483 861.336 429.483C886.261 459.274 898.942 498.482 910.538 551.848Z" fill="#F2F2F2"/>
<path fill-rule="evenodd" clip-rule="evenodd" d="M846.819 482.317C841.484 541.568 848.701 588.442 878.28 584.285L924.019 577.857C924.434 528.103 895.846 463.217 873.356 431.623C872.497 430.416 870.713 428.165 867.324 428.642L854.033 430.509C854.03 430.528 854.027 430.546 854.023 430.565C850.028 431.159 845.645 431.924 840.897 432.753C816.457 437.017 782.378 442.964 742.117 436.032L740.759 459.327C778.67 476.764 816.311 489.109 846.819 482.317Z" fill="#1F28CF"/>
</svg>
